<svg width="583" height="600" viewBox="0 0 583 600" fill="none" xmlns="http://www.w3.org/2000/svg">
<path fill-rule="evenodd" clip-rule="evenodd" d="M99.1459 438.502C139.287 482.153 322.424 422.535 384.081 438.502C426.087 449.381 573.307 460.348 515.043 308.96C330.223 -171.262 -28.0407 300.194 99.1459 438.502Z" fill="#B8E5FF"/>
<ellipse cx="264.919" cy="104.686" rx="30.274" ry="36.0121" fill="white"/>
<path fill-rule="evenodd" clip-rule="evenodd" d="M16.9577 555.556C7.64063 560.228 -0.00963426 565.843 2.84092 572.82C7.80835 584.98 23.415 589.464 41.1622 593.049C65.9904 598.064 100.455 598.694 145.048 596.755C219.59 593.513 211.135 586.379 281.875 583.025C330.019 580.741 413.531 593.419 480.523 593.189C521.51 593.049 700.275 543.637 446.504 532.667C192.733 521.696 53.1562 537.405 16.9577 555.556Z" fill="white"/>
<path fill-rule="evenodd" clip-rule="evenodd" d="M16.9577 555.556C7.64064 560.228 -0.00963449 565.843 2.84092 572.821C7.80835 584.98 214.211 545.804 284.95 542.449C333.094 540.166 406.483 555.786 473.475 555.556C514.462 555.416 608.057 547.09 446.504 532.667C284.95 518.244 53.1562 537.405 16.9577 555.556Z" fill="#E7EAEE"/>
<path fill-rule="evenodd" clip-rule="evenodd" d="M149.99 530.967C82.4052 535.55 35.6532 543.688 15.9585 553.563C10.447 556.327 6.41709 558.954 3.72137 561.787C0.241807 565.444 -0.935295 569.472 0.777148 573.664C3.35662 579.978 8.55305 584.636 16.2805 588.177C22.3032 590.937 29.4568 592.936 40.0267 595.094L40.7209 595.235C64.4511 600.028 97.3773 601.06 145.145 598.982L149.097 598.805C176.798 597.522 191.362 595.948 212.902 592.51L218.781 591.56C240.404 588.09 253.941 586.602 280.985 585.299L283.25 585.194C302.247 584.365 319.768 585.261 368.134 589.099L395.571 591.293C401.822 591.783 407.126 592.184 412.476 592.567L418.169 592.967C442.26 594.62 461.833 595.452 479.598 595.421L480.531 595.419C491.086 595.383 510.178 592.201 528.747 587.374L530.197 586.994C550.414 581.641 566.944 575.184 575.396 568.765C586.996 559.955 583.827 550.859 565.356 544.62C545.363 537.866 506.42 533.025 446.6 530.439C327.616 525.296 227.196 525.73 149.99 530.967ZM446.407 534.894L449.948 535.051C507.368 537.656 544.836 542.395 563.929 548.844L564.794 549.142C572.444 551.828 576.567 554.685 577.49 557.334C578.239 559.484 576.762 562.128 572.699 565.214C564.833 571.188 548.736 577.472 529.038 582.688L527.625 583.058C509.623 587.737 491.117 590.844 480.914 590.957L480.516 590.96C461.7 591.024 440.838 590.106 414.64 588.251L406.118 587.63C400.645 587.221 394.805 586.765 387.608 586.188L370.067 584.78C319.17 580.73 301.743 581.634 281.769 582.581L277.833 582.774C252.536 584.053 239.058 585.573 218.081 588.94L211.463 590.007C189.739 593.457 175.083 594.981 145.95 596.267L144.951 596.311C97.9921 598.353 65.5463 595.588 42.3051 591.004L41.6037 590.864C19.3786 586.374 6.3722 583.058 2.58969 572.066C1.02384 567.516 7.41721 562.834 17.9571 557.549C36.9543 548.024 83.28 539.96 150.292 535.416C227.32 530.191 327.578 529.757 446.407 534.894Z" fill="#00160A"/>
<path fill-rule="evenodd" clip-rule="evenodd" d="M239.294 87.2928C244.615 74.5607 258.948 66.2407 272.654 67.9277C263.836 63.2661 253.614 55.9801 255.225 46.1435C256.465 38.5799 264.573 33.9956 272.181 33.0201C283.362 31.5865 295.987 36.6602 300.349 47.0457C304.711 57.4313 296.93 71.7891 285.666 71.3477C295.142 80.7149 298.581 95.6938 294.138 108.251C291.907 114.556 282.253 114.924 277.313 110.411C272.373 105.899 270.955 98.8059 269.803 92.2181C264.246 95.8194 257.8 98.0396 251.203 98.6247C254.315 99.6718 256.93 102.11 258.19 105.14C252.696 100.854 246.283 97.7511 239.511 96.1029C237.049 104.372 234.559 112.944 235.694 121.497C236.828 130.049 242.619 138.62 251.12 140.134C270.387 143.563 283.582 110.259 303.071 112.048C311.098 112.785 317.165 109.22 320.078 101.711C322.991 94.2014 320.352 84.9131 313.925 80.0525C310.105 80.2311 306.432 77.0566 306.06 73.2536C305.687 69.4506 308.673 65.6245 312.455 65.0591C304.425 53.62 306.447 36.2892 316.895 27.0019C327.343 17.7147 344.805 17.7259 355.242 27.0266C349.527 17.809 354.943 3.88292 365.316 0.696218C375.688 -2.49048 387.863 5.69288 389.078 16.4676C390.292 27.2423 380.543 37.8323 369.691 37.7889C371.498 46.127 379.138 52.8518 387.644 53.5902C384.009 57.7912 377.044 53.832 374.03 49.1653C371.016 44.4985 368.155 38.4318 362.62 37.915C369.42 45.9229 373.905 55.8693 375.406 66.263C370.72 58.9945 367.363 50.8741 365.548 42.4206C366.212 49.1822 364.948 56.122 361.942 62.2162C365.482 60.5144 369.393 65.0251 368.824 68.9093C368.254 72.7935 365.13 75.7147 362.344 78.4822C354.412 86.3596 347.525 98.3235 352.757 108.199C356.283 114.854 363.987 117.852 370.341 121.901C384.035 130.629 392.637 145.755 396.797 161.443C400.956 177.131 401.16 193.556 401.339 209.784C401.72 244.518 402.102 279.251 402.483 313.984C402.609 325.437 402.002 338.544 393.115 345.777C398.549 338.242 400.897 328.553 399.516 319.369C390.393 350.216 383.224 381.056 380.728 416.809C378.232 452.561 383.169 467.541 372.671 516.285C371.726 520.673 373.791 525.847 376.403 530.044C380.966 537.376 398.194 541.484 394.904 547.47C390.706 555.107 372.311 553.311 360.712 552.78C355.942 552.562 350.819 551.781 347.405 548.447C343.161 544.302 342.921 537.676 342.935 531.747C343.083 468.806 340.688 405.859 335.758 343.111C334.816 391.716 333.866 440.433 327.719 488.658C325.987 502.243 322.483 516.459 323.029 530.044C323.326 537.438 326.761 545.363 327.955 552.78C328.903 558.67 324.626 560.695 320.078 560.363C318.872 560.275 317.916 561.284 316.679 561.206C315.652 561.14 314.613 560.445 313.45 560.363C312.207 560.275 310.832 560.8 309.498 560.695C308.501 560.616 308.273 559.789 306.482 559.789C304.691 559.789 304.157 560.344 302.367 560.062C300.576 559.781 297.325 561.997 295.697 559.547C292.75 555.115 300.349 543.24 299.9 537.055C299.451 530.87 297.094 511.159 296.908 505.923C295.304 460.687 285.396 374.383 285.396 374.383C285.396 374.383 279.612 442.971 260.08 484.217C255.234 494.449 248.634 511.285 255.225 519.958C261.816 528.632 258.033 536.324 260.392 545.158C262.276 552.214 266.977 558.252 267.411 566.647C267.625 570.794 261.509 569.909 260.909 569.483C260.308 569.058 259.291 566.632 258.781 566.84C258.018 567.15 260.035 569.317 257.63 570.814C255.225 572.311 254.268 570.665 253.125 571.157C252.012 571.636 251.421 573.13 250.156 572.915C247.591 572.481 247.449 571.465 247.18 571.554C246.9 571.647 247.313 573.234 246.263 573.537C245.212 573.839 242.17 572.518 241.551 571.916C240.647 571.036 240.974 574.237 239.762 574.083C234.821 573.453 233.129 568.915 233.585 566.22C230.989 572.444 227.397 576.526 221.083 578.783C219.653 579.295 218.889 577.687 218.162 577.77C217.764 577.815 218.495 579.08 217.302 579.468C216.109 579.855 215.535 579.708 214.025 579.261C212.515 578.813 212.904 575.012 212.534 575.012C212.165 575.012 212.184 576.973 211.524 577.526C210.257 578.587 209.529 578.682 208.432 577.244C207.817 576.438 208.536 575.104 208.099 575.012C207.802 574.95 207.243 576.56 206.227 576.801C204.448 577.223 203.867 577.385 202.509 575.548C201.916 574.745 203.04 572.512 202.324 572.311C201.609 572.109 200.721 575.833 199.796 576.526C198.87 577.218 198.254 576.621 197.417 575.989C192.791 567.181 199.488 557.051 204.108 548.24C217.167 523.332 213.887 493.093 206.831 465.871C199.776 438.65 189.226 411.854 188.673 383.74C188.458 372.789 189.773 361.766 188.266 350.917C186.625 339.101 181.717 328.03 178.139 316.648C171.344 295.027 169.345 272.205 168.457 249.56C167.757 231.728 167.752 213.608 172.432 196.387C177.112 179.165 187.015 162.726 202.324 153.535C211.872 147.802 223.709 144.581 229.875 135.312C235.643 126.642 234.636 115.306 233.409 104.967C229.327 104.226 226.298 99.821 227.07 95.7481C227.842 91.6752 232.272 88.6815 236.343 89.4825C234.579 86.0359 232.814 82.5893 231.05 79.1427C232.18 80.7832 237.629 90.6113 237.287 78.0483C237.718 81.169 238.483 82.1153 239.294 87.2928Z" fill="white"/>
<path fill-rule="evenodd" clip-rule="evenodd" d="M215.772 309.135C214.005 310.157 211.716 311.482 210.247 310.097C206.232 306.311 199.541 305.814 194.97 308.871L194.697 309.06L194.48 311.624C199.051 308.188 206.086 308.579 210.247 312.502C211.566 313.746 213.545 312.806 215.215 311.86L216.15 311.327C220.855 308.763 227.044 309.178 231.348 312.378C233.755 314.169 236.651 313.039 239.65 311.869C242.154 310.892 244.731 309.887 247.153 310.534C248.286 310.836 249.403 311.489 250.497 312.128C252.502 313.299 254.432 314.427 256.246 313.276C259.838 310.997 264.8 311.112 268.283 313.555L267.968 311.694L267.83 310.85C264.38 308.701 259.685 308.689 256.246 310.871C254.432 312.021 252.502 310.894 250.497 309.722C249.403 309.083 248.286 308.431 247.153 308.128C244.731 307.482 242.154 308.487 239.65 309.464C236.651 310.633 233.755 311.763 231.348 309.973C226.956 306.707 220.601 306.342 215.864 309.082L215.772 309.135ZM215.738 336.49C214.011 337.579 211.775 338.991 210.254 337.663C206.097 334.035 194.557 339.795 194.557 339.795C195.252 340.107 196.845 339.783 198.811 339.383C202.512 338.631 207.532 337.611 210.346 340.067C211.712 341.259 213.654 340.243 215.286 339.235L216.2 338.665C220.802 335.923 227.003 336.1 231.426 339.133C233.901 340.83 236.752 339.59 239.703 338.306C242.168 337.233 244.704 336.13 247.15 336.683C248.293 336.942 249.434 337.551 250.552 338.148C252.601 339.241 254.573 340.294 256.341 339.074L256.587 338.91C258.605 337.606 263.065 338.418 267.107 339.153C270.048 339.689 272.768 340.184 274.166 339.795C274.166 339.795 259.601 334.358 256.248 336.671C254.48 337.89 252.509 336.837 250.46 335.744C249.342 335.147 248.201 334.538 247.057 334.28C244.612 333.726 242.076 334.829 239.61 335.902C236.659 337.186 233.809 338.426 231.334 336.729C226.821 333.635 220.456 333.513 215.827 336.433L215.738 336.49ZM217.179 237.621C215.6 238.757 213.12 239.461 211.921 237.929C208.158 233.118 199.382 233.913 196.546 239.321C199.86 237.487 203.766 235.605 207.271 237.04C208.247 237.44 209.142 238.083 210.028 238.719C211.504 239.78 212.954 240.821 214.705 240.687C216.007 240.586 217.131 239.833 218.249 239.083C219.449 238.278 220.642 237.477 222.044 237.493C223.6 237.511 224.867 238.523 226.135 239.535C227.398 240.544 228.662 241.553 230.213 241.578C231.483 241.599 232.639 240.941 233.784 240.289C235.064 239.56 236.332 238.839 237.73 239.081C239.399 239.37 240.402 240.861 241.405 242.353C242.404 243.838 243.403 245.324 245.06 245.629C246.042 245.811 247.014 245.511 247.963 245.146L248.902 244.775C251.118 243.913 253.59 243.435 255.873 244.098C257.834 244.668 259.58 246.256 260.043 248.198C260.015 247.766 259.982 247.336 259.944 246.908L259.886 244.455C257.373 242.378 253.856 241.572 250.688 242.35C250.145 242.483 249.61 242.66 249.076 242.837C248.047 243.178 247.021 243.517 245.944 243.543C244.309 243.581 242.453 242.512 242.442 240.877L242.435 240.702C242.259 237.992 238.427 237.095 235.729 237.802C235.156 237.952 234.574 238.135 233.988 238.318C231.758 239.017 229.477 239.732 227.453 238.736C226.671 238.351 226.01 237.735 225.356 237.126C224.441 236.273 223.539 235.432 222.333 235.25C220.852 235.027 219.534 235.877 218.286 236.799L217.179 237.621ZM196.677 218.143C197.753 215.571 197.724 212.729 197.596 210.453C197.596 210.453 195.729 213.739 193.246 213.385L193.072 213.366C191.954 213.285 190.783 213.923 189.681 214.525C188.192 215.337 186.828 216.082 185.884 214.895C183.571 211.986 179.79 210.307 176.079 210.541C175.025 210.608 173.909 210.856 173.178 211.618C172.446 212.379 172.323 213.781 173.161 214.422C174.02 212.275 177.02 211.863 179.165 212.731C180.388 213.226 181.461 213.998 182.536 214.772C183.347 215.356 184.159 215.94 185.037 216.407C187.08 217.493 189.95 217.752 191.427 215.972L191.543 215.842C192.696 214.63 194.927 214.653 196.027 215.931C196.548 216.537 196.752 217.352 196.677 218.143ZM207.055 185.383C204.535 186.515 201.752 184.521 199.875 182.494L198.976 181.528C197.319 179.779 195.444 178.09 193.116 178.216C191.858 178.284 190.701 178.898 189.624 179.548C186.408 181.49 183.47 183.888 180.925 186.65C183.394 186.859 185.449 185.161 187.486 183.479C189.625 181.712 191.744 179.962 194.298 180.455C196.246 180.832 197.603 182.415 198.955 183.992C200.344 185.613 201.729 187.229 203.748 187.524C205.087 187.72 206.398 187.266 207.695 186.816C208.01 186.707 208.325 186.598 208.639 186.499C214.872 184.527 222.195 186.644 226.412 191.636C228.337 193.916 231.933 192.834 234.657 191.458L235.405 191.071C238.13 189.696 241.736 188.631 243.643 190.926L243.824 191.136C246.89 194.563 252.271 194.264 256.943 193.474L257.776 193.327C257.825 193.607 257.872 193.911 257.919 194.24L258.011 194.927C259.016 191.4 258.62 190.594 257.776 192.463C256.264 191.108 253.313 191.521 251.331 191.965L251.149 192.003C249.191 192.4 246.701 192.244 245.97 190.417C244.632 187.073 239.747 187.54 236.418 188.919L235.988 189.096C232.725 190.42 228.675 191.708 226.307 189.2C221.518 184.128 213.42 182.522 207.055 185.383ZM259.142 181.743C259.179 180.62 259.297 179.284 259.511 177.766L259.564 177.397C257.27 175.964 254.357 175.561 251.759 176.315C249.62 176.936 247.818 175.462 245.972 173.952C244.329 172.608 242.651 171.235 240.669 171.285C239.071 171.326 237.761 172.283 236.436 173.251C235.366 174.033 234.285 174.823 233.035 175.143C229.988 175.923 227.184 173.79 224.691 171.701L223.698 170.864C220.966 168.567 216.652 166.711 214.115 169.222L213.953 169.374C211.813 171.286 208.318 170.607 205.789 169.166C204.987 168.71 204.213 168.189 203.44 167.668C201.71 166.504 199.984 165.343 197.967 164.912C195.047 164.288 191.282 166.285 191.676 169.242C193.816 166.977 197.417 166.236 200.279 167.474C201.627 168.056 202.883 169.03 204.119 169.989C206.371 171.734 208.555 173.427 211.101 172.61C211.876 172.362 212.545 171.894 213.216 171.425C213.784 171.028 214.353 170.63 214.987 170.364C218.207 169.014 221.205 171.308 224.24 173.629C227.172 175.871 230.138 178.14 233.37 177.174C234.569 176.816 235.619 176.028 236.656 175.249C238.075 174.184 239.468 173.138 241.179 173.247C242.927 173.359 244.273 174.658 245.561 175.902C245.645 175.983 245.729 176.064 245.812 176.144L246.168 176.482C247.648 177.866 249.883 179.053 251.608 177.987C254.37 176.28 258.098 178.649 259.142 181.743ZM261.583 168.168C262.149 167.489 262.681 166.627 263.179 165.583C263.853 164.173 263.863 161.745 263.179 163.178C262.349 164.917 260.428 166.299 258.55 165.857C257.724 165.663 257.018 165.156 256.315 164.651C255.533 164.09 254.755 163.531 253.819 163.408C252.761 163.269 251.762 163.717 250.768 164.163C250.449 164.306 250.13 164.448 249.811 164.571C248.495 165.078 246.676 165.081 246.031 163.828C243.81 159.508 236.901 158.724 233.767 162.436C232.475 163.965 229.91 162.985 228.551 161.515C228.212 161.148 227.889 160.75 227.566 160.352C226.595 159.155 225.618 157.951 224.17 157.552C222.538 157.103 220.956 157.836 219.359 158.576C217.918 159.243 216.464 159.917 214.948 159.735C213.387 159.547 212.151 158.509 210.919 157.476C210.504 157.128 210.09 156.78 209.663 156.465C207.973 155.217 205.236 154.613 204.02 156.325C206.108 156.632 207.919 157.756 209.734 158.881C210.5 159.356 211.266 159.832 212.054 160.246C214.709 161.643 218.391 162.184 220.388 159.947L220.508 159.822C221.979 158.392 224.601 159.566 226.022 161.128C226.282 161.413 226.538 161.714 226.796 162.017C227.993 163.422 229.232 164.876 231.011 165.037C232.606 165.181 233.976 164.217 235.348 163.252C236.711 162.293 238.075 161.333 239.661 161.459C241.285 161.589 242.481 162.798 243.68 164.011C244.857 165.201 246.036 166.393 247.625 166.57C248.478 166.665 249.314 166.442 250.151 166.218C250.5 166.124 250.85 166.031 251.2 165.961C254.464 165.306 257.736 166.65 260.769 168.089L261.393 168.388L261.583 168.168ZM201.525 196.383C201.993 196.64 202.441 197.07 202.493 197.635C202.544 198.2 201.976 198.794 201.507 198.538C199.679 197.54 197.467 198.314 195.627 199.287C195.412 199.401 195.195 199.518 194.978 199.636L194.977 199.636C193.341 200.522 191.652 201.436 189.85 201.27C188.29 201.126 186.841 200.191 185.424 199.276C183.541 198.061 181.715 196.882 179.757 197.642C178.765 198.028 178.021 198.849 177.272 199.675C176.717 200.288 176.158 200.905 175.493 201.35C175.303 201.477 175.086 201.593 174.865 201.557C174.257 201.458 174.285 200.486 174.548 199.886C176.261 195.985 181.144 194.161 184.72 196.086C185.343 196.421 185.928 196.85 186.51 197.279C187.514 198.017 188.513 198.752 189.693 198.989C191.603 199.373 193.466 198.364 195.22 197.413L195.22 197.413C195.341 197.348 195.46 197.283 195.579 197.219C197.438 196.219 199.674 195.367 201.525 196.383ZM216.338 201.431C219.004 202.884 222.505 202.709 225.006 200.997C226.786 199.78 229.259 200.807 230.937 202.157C231.268 202.424 231.596 202.706 231.925 202.99C233.26 204.138 234.616 205.305 236.338 205.55C237.742 205.749 239.096 205.289 240.459 204.827C241.586 204.445 242.719 204.06 243.89 204.044C245.847 204.016 247.605 204.998 249.333 205.964L249.333 205.964L249.333 205.964L249.333 205.964L249.333 205.964C249.704 206.171 250.073 206.377 250.442 206.572C252.535 207.679 255.231 208.437 257.183 207.106L248.269 203.355C247.039 202.837 245.775 202.312 244.439 202.258C243.223 202.209 242.033 202.552 240.847 202.894C239.477 203.289 238.113 203.682 236.724 203.465C234.979 203.194 233.603 202.035 232.233 200.882L232.233 200.882C231.781 200.502 231.331 200.123 230.868 199.776C229 198.377 226.064 197.565 224.488 199.276C223.079 200.807 220.572 200.756 218.614 200.006C217.688 199.651 216.817 199.172 215.947 198.693C214.98 198.161 214.013 197.628 212.969 197.267C210.988 196.582 208.445 196.708 207.198 198.368C207.077 198.91 207.73 199.348 208.293 199.316C208.654 199.295 208.99 199.16 209.327 199.024C209.516 198.948 209.705 198.872 209.9 198.816C211.611 198.321 213.172 199.371 214.722 200.413C215.26 200.775 215.797 201.136 216.338 201.431ZM261.871 287.332C261.154 289.181 258.615 289.457 256.881 288.598C255.866 288.094 255.006 287.337 254.145 286.579C253.534 286.041 252.923 285.503 252.255 285.053C250.643 283.968 248.282 283.527 246.942 284.955C243.615 288.504 238.335 289.931 233.76 288.519C232.009 287.978 230.4 287.072 228.789 286.165L228.789 286.165L228.789 286.165L228.788 286.164L228.788 286.164C227.886 285.656 226.984 285.148 226.055 284.703C223.467 283.464 220.387 282.738 217.805 283.991C216.819 284.47 215.984 285.2 215.147 285.931C214.43 286.558 213.712 287.186 212.897 287.657C210.137 289.253 206.578 288.787 203.855 287.124C203.388 286.839 202.935 286.52 202.483 286.201C201.451 285.473 200.421 284.746 199.222 284.426C197.499 283.968 195.243 284.847 195.056 286.682C193.845 284.856 195.793 282.237 197.923 282.066C200.054 281.895 201.99 283.239 203.741 284.509C205.493 285.78 207.462 287.093 209.586 286.849C211.364 286.644 212.743 285.429 214.142 284.198C215.089 283.363 216.046 282.521 217.141 281.981C220.773 280.189 225.04 282.024 228.586 283.993C232.132 285.961 236.099 288.156 239.968 287.013C241.491 286.563 242.812 285.635 244.133 284.706C244.645 284.347 245.156 283.988 245.679 283.656C247.553 282.468 249.903 281.613 251.919 282.519C252.804 282.916 253.513 283.605 254.223 284.295L254.224 284.295C254.545 284.607 254.866 284.919 255.204 285.205C257.053 286.766 259.496 287.545 261.871 287.332ZM280.67 361.009C278.601 363.683 274.417 362.769 271.251 361.579C268.085 360.39 263.935 359.414 261.8 362.035C260.586 363.525 258.187 363.288 256.507 362.354C255.787 361.954 255.124 361.455 254.462 360.957C253.581 360.295 252.702 359.634 251.691 359.206C247.756 357.544 243.47 359.854 239.647 361.916C239.419 362.039 239.192 362.161 238.968 362.281C234.978 364.418 229.353 365.78 226.469 362.293C224.498 359.91 220.669 360.513 217.897 361.886C217.335 362.165 216.773 362.469 216.209 362.774C213.995 363.972 211.748 365.187 209.292 364.971C207.113 364.778 205.148 363.481 203.225 362.21C200.784 360.598 198.411 359.03 195.75 359.821C194.914 360.069 194.161 360.543 193.411 361.014C192.46 361.612 191.516 362.205 190.416 362.33C190.419 359.605 193.4 357.667 196.127 357.715C198.739 357.76 201.125 359.074 203.421 360.337L203.727 360.506C206.118 361.818 208.737 363.089 211.447 362.778C213.318 362.563 214.973 361.626 216.631 360.687C217.344 360.283 218.059 359.878 218.791 359.531C221.225 358.377 224.543 358.026 226.264 360.097C228.503 362.793 232.704 362.845 236.005 361.665C237.565 361.107 239.036 360.335 240.506 359.563C242.148 358.701 243.789 357.84 245.552 357.278C248.892 356.213 253.144 356.586 255.089 359.501C256.281 361.287 258.985 361.158 260.966 360.326C261.518 360.094 262.061 359.823 262.604 359.551C264.012 358.847 265.419 358.144 266.97 358.134C268.619 358.124 270.221 358.898 271.787 359.656C273.868 360.662 275.885 361.637 277.866 360.702L280.67 361.009ZM236.401 263.835C234.158 264.229 232.148 263.027 230.111 261.809C228.362 260.763 226.593 259.706 224.64 259.635C222.317 259.552 220.232 260.867 218.167 262.17C215.893 263.604 213.645 265.023 211.128 264.541C210.128 264.35 209.222 263.867 208.315 263.382C207.864 263.141 207.412 262.9 206.948 262.694C203.472 261.153 199.167 261.771 196.246 264.231C196.806 261.643 199.397 259.874 201.992 259.661C204.588 259.449 207.136 260.515 209.335 261.935C211.208 263.144 213.703 262.645 215.687 261.634C216.481 261.23 217.238 260.752 217.995 260.274L217.995 260.274C219.129 259.558 220.261 258.843 221.512 258.379C224.993 257.089 229.178 258.061 231.764 260.761C233.338 262.404 236.028 261.964 238.116 261.1C238.416 260.976 238.717 260.845 239.02 260.714L239.021 260.714L239.021 260.714L239.021 260.713C240.832 259.928 242.704 259.117 244.584 259.564C246.251 259.96 247.571 261.27 248.864 262.554C250.439 264.117 251.975 265.641 254.049 265.427C254.725 265.358 255.356 265.095 255.989 264.831C256.454 264.638 256.92 264.444 257.406 264.326C258.552 264.047 260.061 264.443 260.309 265.617C257.024 266.868 253.194 268.083 250.176 266.265C249.229 265.695 248.424 264.854 247.629 264.024L247.629 264.024C246.369 262.708 245.133 261.418 243.398 261.268C241.981 261.145 240.718 261.847 239.439 262.556C238.46 263.099 237.473 263.648 236.401 263.835ZM221.485 220.329C222.683 219.572 223.881 218.815 225.281 218.702C227.411 218.53 229.201 219.862 230.937 221.153L230.937 221.153C231.324 221.441 231.708 221.727 232.092 221.993C234.202 223.456 237.666 224.203 239.058 222.107C239.873 220.879 241.823 220.807 243.182 221.475C244.171 221.961 244.954 222.722 245.738 223.483C246.031 223.768 246.325 224.054 246.629 224.324C247.904 225.458 249.476 226.384 251.216 226.543C252.956 226.702 254.86 225.944 255.621 224.453C251.499 225.294 246.918 223.452 244.693 220.059C243.57 218.347 240.793 219.171 238.975 220.217C237.157 221.264 234.483 222.227 233.203 220.617C230.219 216.866 223.77 216.201 220.004 219.257C218.166 220.748 215.274 219.756 213.427 218.274C212.943 217.886 212.477 217.464 212.01 217.041L212.01 217.041L212.01 217.041C210.697 215.852 209.381 214.661 207.659 214.216C204.633 213.436 201.166 215.757 200.933 218.72C201.783 218.82 202.676 218.376 203.072 217.656C203.953 216.053 206.362 215.753 208.12 216.456C209.518 217.014 210.633 218.018 211.741 219.017L211.741 219.017L211.742 219.017L211.742 219.017C212.027 219.274 212.313 219.531 212.602 219.78C214.016 220.995 215.765 222.1 217.668 221.957C219.076 221.852 220.28 221.091 221.485 220.329Z" fill="#FFB61D"/>
<path fill-rule="evenodd" clip-rule="evenodd" d="M239.294 87.2928C244.615 74.5607 258.948 66.2407 272.654 67.9277C263.836 63.2661 253.614 55.9801 255.225 46.1435C256.465 38.5799 264.573 33.9956 272.181 33.0201C283.362 31.5865 295.987 36.6602 300.349 47.0457C304.711 57.4313 296.93 71.7891 285.666 71.3477C295.142 80.7149 298.581 95.6938 294.138 108.251C291.907 114.556 282.253 114.924 277.313 110.411C272.373 105.899 270.955 98.8059 269.803 92.2181C264.246 95.8194 257.8 98.0396 251.203 98.6247C254.315 99.6718 256.93 102.11 258.19 105.14C252.696 100.854 246.283 97.7511 239.511 96.1029C237.049 104.372 234.559 112.944 235.694 121.497C236.828 130.049 242.619 138.62 251.12 140.134C260.919 141.878 269.147 134.121 277.432 126.311C285.437 118.765 293.494 111.169 303.071 112.048C311.098 112.785 317.165 109.22 320.078 101.711C322.991 94.2014 320.352 84.9131 313.925 80.0525C310.105 80.2311 306.432 77.0566 306.06 73.2536C305.687 69.4506 308.673 65.6245 312.455 65.0591C304.425 53.62 306.447 36.2892 316.895 27.0019C327.343 17.7147 344.805 17.7259 355.242 27.0266C349.527 17.809 354.943 3.88292 365.316 0.696218C375.688 -2.49048 387.863 5.69288 389.078 16.4676C390.292 27.2423 380.543 37.8323 369.691 37.7889C371.498 46.127 379.138 52.8518 387.644 53.5902C384.009 57.7912 377.044 53.832 374.03 49.1653C373.6 48.5002 373.174 47.8067 372.742 47.1049L372.742 47.1041L372.741 47.1032L372.741 47.1022L372.74 47.1014L372.74 47.101C370.145 42.8793 367.365 38.358 362.62 37.915C369.42 45.9229 373.905 55.8693 375.406 66.263C370.72 58.9945 367.363 50.8741 365.548 42.4206C366.212 49.1822 364.948 56.122 361.942 62.2162C365.482 60.5144 369.393 65.0251 368.824 68.9093C368.282 72.603 365.431 75.4259 362.756 78.0739C362.618 78.2105 362.481 78.3465 362.344 78.4822C354.412 86.3596 347.525 98.3235 352.757 108.199C355.466 113.312 360.641 116.266 365.775 119.197C367.324 120.081 368.869 120.963 370.341 121.901C384.035 130.629 392.637 145.755 396.797 161.443C400.956 177.131 401.16 193.556 401.339 209.784L402.483 313.984C402.609 325.437 402.002 338.544 393.115 345.777C398.549 338.242 400.897 328.553 399.516 319.369C390.393 350.216 383.224 381.056 380.728 416.809C379.918 428.415 379.891 437.833 379.865 446.927C379.811 465.846 379.761 483.366 372.671 516.285C371.726 520.673 373.791 525.847 376.403 530.044C378.381 533.222 382.737 535.794 386.771 538.175C392.045 541.289 396.768 544.078 394.904 547.47C391.103 554.387 375.656 553.566 364.159 552.955C362.961 552.892 361.806 552.83 360.712 552.78C355.942 552.562 350.819 551.781 347.405 548.447C343.161 544.302 342.921 537.676 342.935 531.747C343.083 468.806 340.688 405.859 335.758 343.111C334.816 391.716 333.866 440.433 327.719 488.658C327.204 492.696 326.533 496.789 325.858 500.905C324.262 510.638 322.645 520.497 323.029 530.044C323.204 534.388 324.461 538.914 325.711 543.414C326.589 546.574 327.462 549.72 327.955 552.78C328.903 558.67 324.626 560.695 320.078 560.363C319.476 560.319 318.937 560.548 318.393 560.779C317.848 561.011 317.299 561.245 316.679 561.206C316.178 561.174 315.675 560.992 315.156 560.805C314.61 560.608 314.046 560.405 313.45 560.363C312.845 560.32 312.209 560.422 311.562 560.527C310.879 560.637 310.183 560.749 309.498 560.695C309.09 560.662 308.811 560.505 308.501 560.33C308.053 560.078 307.541 559.789 306.482 559.789C305.722 559.789 305.188 559.889 304.689 559.982C304.011 560.109 303.397 560.224 302.367 560.062C301.768 559.968 301.007 560.153 300.198 560.349C298.585 560.741 296.781 561.179 295.697 559.547C294.025 557.033 295.747 552.123 297.469 547.215C298.782 543.472 300.094 539.731 299.9 537.055C299.708 534.413 299.168 529.301 298.598 523.904L298.598 523.903C297.833 516.669 297.015 508.922 296.908 505.923C295.304 460.687 291.806 415.101 284.731 370.392C273.102 378.283 260.399 384.594 247.083 389.094C242.402 390.676 241.299 396.675 240.974 401.602C238.596 437.668 236.382 474.966 248.775 508.924C264.857 466.961 276.958 423.476 284.862 379.241C280.989 415.16 272.331 450.561 259.188 484.217C254.762 495.551 248.634 511.285 255.225 519.958C259.367 525.408 259.412 530.47 259.459 535.672C259.487 538.749 259.515 541.875 260.392 545.158C261.109 547.846 262.236 550.386 263.379 552.964C265.238 557.156 267.142 561.45 267.411 566.647C267.625 570.794 261.509 569.909 260.909 569.483C260.655 569.304 260.327 568.767 259.994 568.222C259.539 567.478 259.075 566.72 258.781 566.84C258.51 566.95 258.59 567.295 258.698 567.76C258.893 568.605 259.181 569.849 257.63 570.814C256.14 571.741 255.205 571.462 254.438 571.232C253.967 571.092 253.559 570.97 253.125 571.157C252.689 571.345 252.333 571.688 251.986 572.023C251.446 572.544 250.926 573.046 250.156 572.915C248.337 572.607 247.736 572.007 247.445 571.715C247.326 571.596 247.258 571.528 247.18 571.554C247.085 571.586 247.07 571.79 247.05 572.058C247.012 572.578 246.956 573.337 246.263 573.537C245.212 573.839 242.34 572.622 241.721 572.021C241.274 571.586 241.086 572.123 240.864 572.759C240.638 573.408 240.375 574.161 239.762 574.083C234.821 573.453 233.129 568.915 233.585 566.22C230.989 572.444 227.397 576.526 221.083 578.783C220.206 579.097 219.58 578.614 219.059 578.212C218.73 577.959 218.443 577.738 218.162 577.77C218.017 577.786 218.022 577.966 218.029 578.206C218.041 578.623 218.059 579.222 217.302 579.468C216.109 579.855 215.535 579.708 214.025 579.261C213.019 578.963 212.856 577.177 212.75 576.017C212.696 575.436 212.658 575.012 212.534 575.012C212.367 575.012 212.279 575.414 212.172 575.905C212.043 576.499 211.885 577.223 211.524 577.526C210.257 578.587 209.529 578.682 208.432 577.244C208.089 576.795 208.161 576.182 208.216 575.711C208.259 575.337 208.293 575.053 208.099 575.012C207.984 574.988 207.83 575.214 207.625 575.515C207.301 575.991 206.85 576.653 206.227 576.801L206.167 576.815C204.435 577.226 203.852 577.365 202.509 575.548C202.214 575.149 202.343 574.398 202.46 573.717C202.579 573.028 202.684 572.412 202.324 572.311C201.945 572.204 201.517 573.202 201.06 574.266C200.656 575.207 200.23 576.201 199.796 576.526C198.945 577.163 198.355 576.709 197.615 576.14L197.608 576.134L197.588 576.119C197.532 576.076 197.475 576.032 197.417 575.989C193.318 568.184 198.11 559.341 202.469 551.297C203.029 550.264 203.582 549.244 204.108 548.24C217.167 523.332 213.887 493.093 206.831 465.871C205.008 458.835 202.951 451.828 200.893 444.818C194.99 424.71 189.083 404.587 188.673 383.74C188.597 379.888 188.711 376.027 188.825 372.168C189.034 365.056 189.243 357.95 188.266 350.917C187.101 342.526 184.288 334.51 181.473 326.492L181.473 326.491C180.325 323.219 179.176 319.947 178.139 316.648C171.344 295.027 169.345 272.205 168.457 249.56C167.757 231.728 167.752 213.608 172.432 196.387C177.112 179.165 187.015 162.726 202.324 153.535C205.108 151.863 208.087 150.405 211.062 148.949L211.063 148.949C218.293 145.41 225.507 141.879 229.875 135.312C235.643 126.642 234.636 115.306 233.409 104.967C229.327 104.226 226.298 99.821 227.07 95.7481C227.842 91.6752 232.272 88.6815 236.343 89.4825L231.05 79.1427C231.158 79.2988 231.304 79.5292 231.482 79.8075L231.482 79.8078L231.482 79.8084C233.166 82.4532 237.597 89.414 237.287 78.0483C237.483 79.4686 237.748 80.4385 238.056 81.5619L238.056 81.5619C238.424 82.9069 238.852 84.4718 239.294 87.2928ZM387.993 320.44C389.099 319.112 389.527 317.362 389.884 315.672C395.527 288.99 391.513 262.159 378.747 238.055C350.425 240.479 321.863 240.081 293.62 236.869C289.44 236.394 286.77 241.122 285.442 245.111C278.062 267.273 275.435 291.003 277.788 314.241C278.194 318.248 283.007 319.99 286.987 320.626C296.11 322.085 301.15 321.15 308.624 319.763C314.363 318.698 321.537 317.366 333.097 316.648C334.461 316.563 334.399 311.894 334.321 305.941C334.237 299.591 334.134 291.78 335.723 286.518C340.624 370.48 344.05 454.528 345.999 538.61C346.06 541.228 346.173 544.019 347.682 546.159C349.821 549.194 353.971 549.893 357.677 550.15C369.159 550.946 391.044 551.413 391.94 547.209C391.378 543.456 387.105 541.319 383.101 539.318L383.098 539.316L383.095 539.315L383.092 539.314L383.092 539.313C382.293 538.914 381.506 538.521 380.761 538.12C374.341 534.672 370.933 527.212 370.289 519.958C369.713 513.477 370.976 507.013 372.227 500.608C372.376 499.844 372.525 499.081 372.671 498.319C376.465 478.477 378.084 458.22 377.49 438.028C377.439 436.279 377.371 434.53 377.303 432.78C377.065 426.642 376.826 420.502 377.3 414.384C377.89 406.766 379.574 399.294 381.257 391.832C381.603 390.293 381.95 388.755 382.287 387.216C386.862 366.329 389.681 345.059 390.707 323.702C373.996 330.967 353.823 329.694 338.159 320.388C351.75 325.743 366.778 325.626 381.214 323.38C383.704 322.992 386.38 322.376 387.993 320.44ZM399.203 190.484C397.437 174.99 393.764 159.714 388.296 145.108C387.304 142.46 385.767 140.463 384.12 138.325L384.12 138.325C383.658 137.725 383.188 137.114 382.718 136.475C378.803 131.139 373.141 127.656 367.45 124.154C363.001 121.417 358.534 118.668 354.87 115.016C349.84 119.674 342.872 122.172 336.025 121.773C329.179 121.373 322.549 118.081 318.097 112.869C317.768 112.484 317.185 112.476 316.679 112.504C308.259 112.959 299.796 114.492 292.165 118.077C284.534 121.662 277.76 127.428 273.943 134.94C272.382 138.01 271.335 141.311 270.356 144.612C265.4 161.31 261.989 178.465 260.179 195.788C260.071 196.825 260.004 197.987 260.672 198.788C261.123 199.328 261.821 199.586 262.491 199.801C268.373 201.686 274.754 201.991 280.789 200.677L263.978 198.312C262.979 198.171 261.682 197.107 262.49 196.501C262.753 196.303 263.117 196.335 263.443 196.376L283.25 198.855C284.131 198.965 284.651 197.896 284.796 197.021C285.216 194.488 284.891 191.822 284.569 189.187C284.087 185.237 283.613 181.358 285.676 178.105C287.49 195.733 287.159 213.581 284.691 231.13C284.403 233.179 287.082 234.188 289.139 234.432C317.281 237.768 345.729 238.526 374.009 236.695C378.428 236.408 381.771 232.179 382.561 227.825C383.351 223.472 382.191 219.027 381.04 214.754L372.375 182.582C371.851 180.635 371.456 178.217 372.977 176.892L378.233 197.178C378.449 198.014 378.747 198.953 379.531 199.32C380.104 199.589 380.775 199.465 381.395 199.336L395.19 196.47C396.352 196.229 397.593 195.944 398.395 195.07C399.48 193.889 399.385 192.077 399.203 190.484ZM259.542 182.39C259.542 180.401 260.185 177.336 260.9 173.935C263.069 163.609 265.89 150.18 253.335 154.297L253.116 154.369C248.129 156.005 242.235 157.939 236.891 156.241C231.469 154.518 226.868 150.375 224.591 145.165C226.036 144.096 227.825 145.872 228.921 147.296C234.236 154.2 244.568 156.675 252.439 152.93C256.294 151.096 256.319 145.71 255.759 141.481C247.288 144.339 236.982 138.382 235.239 129.62C233.566 135.446 229.678 140.609 224.539 143.829C222.606 145.041 220.522 145.978 218.438 146.914L218.438 146.914L218.436 146.915L218.435 146.916L218.434 146.916C217.78 147.21 217.127 147.504 216.479 147.806C190.837 159.753 172.692 186.363 170.947 214.577C170.869 215.827 171.123 217.478 172.36 217.681L191.387 220.81C191.614 220.847 191.824 220.889 192.024 220.929C193.054 221.136 193.837 221.293 195.529 220.516C197.55 219.588 197.93 209.749 197.74 206.7C197.55 203.65 197.347 199.759 200.109 198.448C200.362 208.318 198.743 218.075 197.123 227.843C195.808 235.773 194.491 243.71 194.174 251.72C194.072 254.298 194.151 256.884 194.23 259.467C194.317 262.312 194.404 265.154 194.249 267.98C192.206 305.204 191.834 389.701 191.834 389.701C191.834 389.701 227.77 386.896 240.975 383.74C260.442 379.088 273.174 373.408 279.6 370.542L279.6 370.542C282.544 369.228 284.164 368.506 284.502 368.743C283.316 361.835 280.195 348.334 276.577 332.682C269.479 301.972 260.466 262.977 260.392 249.227C260.387 248.273 259.945 246.991 259.581 245.934C259.039 244.359 258.669 243.286 260.176 244.55L259.884 232.263C259.817 229.429 259.617 223.218 259.408 221.813C257.163 206.713 258.194 197.165 258.966 190.016C259.274 187.158 259.542 184.683 259.542 182.39ZM307.283 555.954C307.601 559.789 310.225 560.327 312.455 558.478C313.191 557.867 313.461 555.691 313.735 553.488L313.735 553.486C313.785 553.085 313.835 552.683 313.887 552.29C314.299 553.249 314.359 554.685 314.415 556.018C314.49 557.813 314.557 559.419 315.463 559.419C319.065 559.419 318.491 553.147 318.219 550.181L318.219 550.174C318.201 549.98 318.185 549.801 318.171 549.638C318.91 548.564 320.106 551.443 319.802 553.108C319.497 554.774 319.458 556.912 320.659 558.106C322.572 560.008 325.528 556.937 325.884 554.264C326.504 549.599 324.929 545.124 323.341 540.612C322.221 537.43 321.094 534.229 320.727 530.929C320.247 526.623 321.079 522.299 321.899 518.037C321.94 517.824 321.981 517.61 322.022 517.396C329.461 478.571 330.679 438.861 331.876 399.349L334.26 320.654C316.817 324.852 298.505 325.409 280.839 322.281C279.853 322.106 279.521 323.552 279.632 324.546C281.689 342.948 284.563 361.283 287.435 379.611C292.888 414.41 298.338 449.184 298.188 484.34C298.178 486.747 298.142 489.16 298.106 491.573C297.945 502.303 297.783 513.061 299.899 523.552C300.095 524.521 300.31 525.495 300.525 526.471C301.596 531.328 302.683 536.256 301.488 541.024C301.004 542.952 300.155 544.844 299.313 546.721C297.698 550.318 296.107 553.865 297.147 557.528C297.445 558.577 298.262 559.733 299.337 559.547C300.662 559.319 300.667 557.7 300.673 556.112C300.678 554.513 300.684 552.946 302.034 552.858C301.799 555.238 303.162 559.201 304.716 558.727C305.705 558.727 305.884 556.943 306.077 555.031C306.21 553.701 306.351 552.31 306.773 551.413C307.55 552.666 307.422 553.93 307.324 554.907C307.283 555.313 307.247 555.669 307.283 555.954ZM274.58 296.039C274.486 284.604 276.716 273.291 278.938 262.073C280.743 252.955 282.663 243.558 287.909 235.883C286.343 236.619 284.413 235.486 283.663 233.929C282.912 232.372 283.02 230.556 283.144 228.832L284.859 205.039C284.952 203.753 284.372 201.883 283.142 202.274C276.798 204.293 269.773 204.108 263.544 201.757C262.611 201.405 262.041 202.779 261.997 203.775C259.967 249.8 274.722 313.385 274.58 296.039ZM250.858 564.289C251.775 564.161 252.468 566.246 253.044 567.981C253.325 568.826 253.579 569.589 253.817 569.972C254.584 571.203 256.672 570.733 257.408 569.483C257.798 568.821 257.735 567.283 257.681 565.983C257.633 564.828 257.594 563.861 257.886 563.861C259.522 563.861 260.049 565.17 260.55 566.418C261.046 567.652 261.518 568.826 263.017 568.61C264.243 568.434 265.034 567.204 265.379 566.017C266.629 561.718 264.289 557.764 261.899 553.727C260.607 551.546 259.301 549.34 258.541 547.043C257.522 543.966 257.505 540.687 257.489 537.41C257.472 533.96 257.454 530.513 256.266 527.314C255.504 525.263 254.297 523.422 253.094 521.588C252.848 521.212 252.602 520.837 252.36 520.461C239.965 501.172 237.731 477.206 237.287 454.288C236.885 433.542 237.667 412.774 239.629 392.117L231.863 393.228L192.718 398.827C198.689 434.187 208.576 468.751 218.442 503.228C219.703 507.635 220.968 512.052 222.725 516.285C224.603 520.81 227.038 525.104 229.958 529.039C234.337 534.941 234.007 542.899 233.7 550.293L233.677 550.863L233.661 551.236C233.642 551.723 233.62 552.218 233.597 552.717C233.27 560.066 232.892 568.539 239.294 571.789C240.87 572.588 240.653 571.12 240.384 569.301C240.177 567.893 239.938 566.274 240.476 565.336C240.651 567.03 240.845 568.785 241.722 570.246C242.598 571.707 244.364 572.783 246.001 572.311C246.462 572.059 246.271 570.935 246.042 569.585C245.795 568.137 245.505 566.43 245.928 565.262C246.44 566.097 246.664 566.969 246.897 567.879C247.146 568.85 247.406 569.863 248.039 570.919C249.134 572.747 251.896 571.716 252.08 570.023C252.184 569.072 251.784 568.189 251.392 567.323C250.937 566.316 250.491 565.332 250.858 564.289ZM187.894 340.199C190.178 312.289 192.464 284.331 192.148 256.329C192.142 255.819 192.136 255.308 192.129 254.797C192.074 250.546 192.019 246.287 192.458 242.06C192.915 237.656 193.91 233.307 195.413 229.142L172.146 226.309C171.824 226.27 171.45 226.248 171.226 226.481C171.056 226.657 171.031 226.923 171.015 227.167C168.497 265.47 174.295 304.298 187.894 340.199ZM380.333 203.375L383.169 214.831C384.133 218.723 385.104 222.686 384.876 226.689C384.648 230.692 383.037 234.813 379.762 237.131C389.777 251.258 393.2 269.072 393.751 286.375C394.044 295.578 393.599 304.777 393.154 313.978C392.762 322.079 392.37 330.18 392.481 338.285C399.236 320.345 399.505 300.718 399.693 281.551L400.198 229.828C400.302 219.222 400.403 208.573 399.012 198.058L382.718 201.277C381.549 201.508 380.047 202.218 380.333 203.375ZM321.442 26.3598C314.04 30.0917 310.2 38.8783 310.373 47.1609C310.445 50.6171 311.421 54.5127 314.462 56.1623C316.417 57.2235 318.982 57.0434 320.77 55.7193C322.558 54.3953 323.476 51.9962 323.029 49.8179C322.817 48.7837 324.222 47.9969 325.189 48.4212C326.157 48.8454 326.623 49.9622 326.761 51.0089C326.814 51.4122 326.833 51.8205 326.851 52.2283C326.88 52.8788 326.91 53.5282 327.079 54.1546C327.548 55.8831 329.157 57.2411 330.941 57.4125C332.725 57.5839 334.565 56.5573 335.354 54.9496C335.558 54.5341 335.699 54.084 335.84 53.6357L335.84 53.6354C336.079 52.8716 336.317 52.1132 336.861 51.5416C337.723 50.6346 339.808 51.0694 339.533 52.29C338.969 54.7867 341.603 57.2486 344.15 56.9687C346.696 56.6888 348.655 54.2586 348.94 51.7152L348.962 51.5216C349.115 50.13 349.312 48.3383 350.666 48.2177C351.794 49.3415 352.053 51.0243 352.308 52.6836C352.592 54.5371 352.873 56.3612 354.356 57.3441C356.46 58.7385 359.362 57.1634 360.793 55.0848C362.835 52.1168 363.24 48.2384 362.509 44.7112C361.778 41.1839 360.011 37.9542 357.998 34.9657C356.483 32.7155 354.8 30.5503 352.728 28.7977C346.281 23.3434 336.969 22.6346 328.656 24.1413C326.172 24.5917 323.696 25.2233 321.442 26.3598ZM216.681 504.284C215.794 509.032 215.429 513.817 215.065 518.602C214.7 523.388 214.336 528.173 213.449 532.921C213.197 534.267 211.272 537.938 208.826 542.602C203.92 551.955 196.92 565.301 197.115 571.916C197.15 573.11 197.692 575.463 198.703 575.317C200.605 575.042 200.958 572.942 201.287 570.988L201.287 570.988C201.327 570.75 201.367 570.513 201.409 570.283C201.797 568.164 202.118 567.518 204.252 567.831C204.905 568.036 204.905 568.861 204.168 570.283C203.43 571.705 202.888 573.496 203.753 574.844C204.618 576.193 207.345 575.833 207.211 574.237C207.104 572.963 208.012 571.677 209.251 571.352C209.666 572.079 209.488 573.061 209.321 573.983C209.114 575.124 208.924 576.172 209.898 576.526C211.233 577.011 211.951 575.031 212.199 573.634C212.447 572.237 214.339 570.736 214.941 572.021C213.346 573.959 211.695 578.541 216.109 578.541C217.337 578.541 217.319 576.54 217.301 574.54C217.292 573.539 217.283 572.539 217.43 571.789C218.609 571.714 219.088 573.327 218.878 574.489C218.828 574.765 218.764 575.006 218.706 575.226C218.521 575.931 218.393 576.414 218.956 577.117C220.005 578.425 222.119 577.448 223.323 576.282C227.978 571.776 230.467 566.195 231.419 559.789C232.371 553.383 231.916 546.861 231.46 540.401C231.223 537.042 230.906 533.468 228.848 530.803C222.85 523.038 218.654 513.892 216.681 504.284ZM335.954 57.9736C333.644 60.3639 329.312 60.3386 327.03 57.9215C326.819 57.6973 326.622 57.456 326.426 57.2151C326.025 56.7214 325.624 56.2288 325.093 55.8862C324.303 55.3762 323.055 55.3734 322.599 56.1951C320.69 59.6311 315.507 60.6646 312.425 58.2238L318.817 82.5637C320.008 87.0947 321.322 91.8501 324.626 95.1741C326.711 97.2725 329.436 98.6239 332.223 99.62C333.721 100.156 335.284 100.604 336.874 100.559C338.655 100.509 340.364 99.8421 341.939 99.0109C348.544 95.5245 353.244 89.0938 355.895 82.1153C358.545 75.1368 359.331 67.5961 359.646 60.1386C356.061 61.36 351.718 59.6981 349.867 56.3964C347.394 58.7839 343.492 59.5604 340.293 58.3012C340.173 58.2539 340.05 58.2045 339.925 58.1543L339.924 58.1538C338.552 57.6016 336.941 56.9531 335.954 57.9736ZM292.622 86.5981C290.431 79.5383 284.978 73.3166 277.885 71.2188C275.323 70.4613 272.627 70.2422 269.957 70.3014C257.203 70.5842 244.142 78.3926 240.51 90.6113C240.221 91.5852 240.006 92.6933 240.517 93.5712C241.01 94.4166 242.025 94.7858 242.97 95.0414C251.235 97.2772 260.502 95.4429 267.29 90.2274L267.355 90.1779L267.467 90.0915L267.467 90.0914C268.213 89.5142 268.987 88.9162 269.913 88.7744C270.913 88.6214 272.114 89.2789 272.109 90.2895C272.064 98.9584 276.411 108.239 284.502 111.37C286.188 112.023 288.243 112.342 289.69 111.259C290.615 110.566 291.093 109.44 291.488 108.354C294.017 101.407 294.812 93.6579 292.622 86.5981ZM258.288 52.1177C259.833 55.6094 262.678 58.3532 265.652 60.7496C270.828 64.9197 276.933 68.4298 283.577 68.6683C290.222 68.9067 297.346 65.0248 299.058 58.6052C299.949 55.2635 299.321 51.6966 298.256 48.4063C297.144 44.9709 295.396 41.5035 292.305 39.6342C283.963 34.5905 273.157 33.8663 264.216 37.7519C262.309 38.5806 260.439 39.6432 259.136 41.2624C256.742 44.2377 256.743 48.626 258.288 52.1177ZM381.37 26.4143C385.077 19.5865 384.366 10.6075 379.63 4.44714C378.946 3.55693 378.164 2.70568 377.167 2.19014C376.19 1.68567 375.069 1.53547 373.971 1.49479C368.421 1.28924 362.835 3.84605 359.367 8.18018C355.898 12.5143 354.631 18.5206 356.053 23.885C356.844 23.5112 357.145 22.5613 357.367 21.7153C357.589 20.8693 357.9 19.9197 358.698 19.5591C359.495 19.1984 360.657 20.1478 360.124 20.8418C358.344 23.1599 357.492 26.1701 357.794 29.0764C358.089 29.7125 359.006 28.9991 359.259 28.3453L360.397 25.4132C360.665 24.7237 360.966 23.9914 361.579 23.5779C362.193 23.1645 363.213 23.2831 363.461 23.9799L360.64 29.8086C360.277 30.5608 360.076 31.7385 360.873 31.99L368.741 25.9809C369.746 27.1205 368.822 28.9569 367.598 29.8585C367.223 30.1349 366.816 30.3803 366.41 30.6252C365.491 31.1791 364.576 31.7309 364.037 32.6361C366.707 32.9534 369.413 32.9661 372.086 32.6739C373.514 32.5179 374.951 32.2693 376.254 31.6674C378.513 30.6242 380.184 28.5995 381.37 26.4143ZM322 113.072C324.869 116.036 329.058 117.271 333.097 118.119C339.087 119.377 345.961 119.84 350.704 115.974C351.677 115.181 352.582 113.898 352.054 112.76C349.825 107.952 348.999 102.505 349.701 97.2532C348.715 97.0869 347.925 98.0022 347.283 98.7681C344.853 101.667 341.311 103.748 337.53 103.916C332.279 104.149 327.604 100.851 323.396 97.7037C323.076 101.256 322.093 104.747 320.514 107.945C319.673 109.648 320.678 111.707 322 113.072ZM192.412 395.083C193.774 395.942 195.511 395.825 197.115 395.675C221.015 393.449 245.651 390.59 266.519 378.736C249.057 385.181 230.445 387.752 212.003 390.281C205.312 391.198 198.502 392.115 191.834 391.041C190.517 391.968 191.051 394.224 192.412 395.083ZM257.338 142.123L257.886 148.823C257.932 149.39 257.984 149.977 258.265 150.472C258.606 151.074 259.23 151.449 259.828 151.797L264.522 154.533C264.748 154.665 265.009 154.801 265.258 154.722C265.557 154.626 265.678 154.278 265.757 153.975L270.026 137.731C265.687 138.845 261.438 140.316 257.338 142.123ZM193.507 226.36C193.905 226.377 194.317 226.391 194.686 226.241C195.685 225.834 195.864 224.522 195.89 223.445C187.595 222.713 179.359 221.306 171.291 219.242C170.098 220.114 170.326 222.096 171.371 223.141C172.416 224.185 173.956 224.527 175.413 224.779C181.383 225.81 187.453 226.108 193.507 226.36ZM232.787 101.386C234.045 101.824 235.221 100.438 235.495 99.1361C235.586 98.7056 235.63 98.2601 235.675 97.8156C235.765 96.9156 235.854 96.0202 236.325 95.264C237.022 94.1455 236.06 92.5629 234.781 92.2427C233.502 91.9225 232.164 92.5205 231.112 93.3157C229.388 94.6203 228.067 96.9907 229.06 98.9108C229.763 100.269 231.342 100.883 232.787 101.386ZM366.222 66.1745C366.11 65.7309 365.948 65.2857 365.644 64.9435C364.745 63.9326 362.963 64.3012 362.083 65.3284C361.203 66.3556 360.986 67.7769 360.817 69.1185C360.606 70.7931 360.417 72.4705 360.25 74.15C360.207 74.5891 360.375 75.2293 360.804 75.1268C364.583 74.2254 367.178 69.9361 366.222 66.1745ZM313.212 76.2404C313.493 76.081 313.762 75.8734 313.905 75.5841C314.126 75.1385 314.008 74.6071 313.885 74.125L313.157 71.2665C312.87 70.1411 312.431 68.8445 311.326 68.485C310.091 68.0836 308.842 69.1573 308.273 70.3233C307.433 72.0474 307.51 74.3315 308.88 75.6748C309.995 76.7684 311.853 77.0109 313.212 76.2404ZM367.918 35.7586C366.975 35.2849 365.864 35.1535 364.836 35.3941C365.697 36.3575 367.153 36.7391 368.377 36.3221C368.727 36.1343 368.37 35.4659 368.019 35.652L367.918 35.7586ZM379.059 196.175L395.169 192.264C395.448 192.196 395.765 192.133 396.01 192.271C396.644 192.628 395.88 193.452 395.188 193.712C390.799 195.361 386.133 196.422 381.395 196.848C380.524 196.927 379.434 196.88 379.059 196.175ZM244.683 107.394C245.176 107.124 245.36 106.611 245.545 106.094C245.623 105.875 245.702 105.656 245.804 105.454C246.148 104.777 247.383 104.347 247.674 105.044C248.716 107.532 251.558 109.299 254.483 109.276C255.532 109.268 255.957 110.69 255.324 111.451C254.69 112.212 253.543 112.417 252.498 112.501C251.622 111.264 250.112 110.617 248.603 109.97C247.074 109.316 245.547 108.661 244.683 107.394ZM271.496 123.427C270.981 123.348 270.633 122.884 270.293 122.43C269.915 121.926 269.548 121.435 268.973 121.503C266.961 121.741 265.728 119.39 265.092 117.452C264.838 116.677 265.085 115.368 265.838 115.67C267.763 117.787 270.428 119.206 273.247 119.616C274.339 119.775 275.745 120.037 275.933 121.133L272.697 123.047C272.327 123.265 271.92 123.492 271.496 123.427ZM262.084 128.368C255.801 130.557 247.941 127.736 244.968 122.224C244.638 121.612 243.495 121.87 243.223 122.506C242.952 123.141 243.265 123.853 243.625 124.451C245.463 127.51 248.689 129.846 252.368 130.781C256.047 131.717 260.131 131.239 263.433 129.488C263.229 128.89 262.725 128.144 262.084 128.368ZM255.95 114.475C256.491 113.755 257.09 113.025 257.918 112.675C258.745 112.324 259.86 112.493 260.308 113.274C258.657 114.76 257.164 116.424 255.865 118.228C255.372 118.912 254.884 119.709 255.018 120.543C255.152 121.377 256.272 122.018 256.868 121.421C257.315 120.976 258.184 121.441 258.221 122.071C258.258 122.702 257.69 123.24 257.076 123.382C256.463 123.525 255.823 123.369 255.218 123.196C254.152 122.89 252.968 122.404 252.604 121.354C252.27 120.39 252.769 119.353 253.286 118.474C254.098 117.092 254.988 115.756 255.95 114.475ZM328.123 64.1203C329.394 64.2207 331.041 65.0695 330.523 66.1451C329.626 66.8437 328.39 66.6087 327.18 66.3783C326.82 66.3099 326.462 66.2418 326.116 66.1988C324.643 66.0158 323.167 66.343 321.697 66.6691C320.075 67.0289 318.458 67.3874 316.858 67.0577C316.424 66.7828 316.495 66.1275 316.861 65.7791C317.228 65.4307 317.772 65.309 318.285 65.2028C321.521 64.5333 324.819 63.8595 328.123 64.1203ZM347.396 65.0104C349.592 65.2806 351.836 65.2267 354.013 64.8515C354.346 63.8314 352.788 63.2313 351.622 63.1186L346.152 62.5899C344.97 62.4757 343.697 62.3778 342.668 62.9163C341.638 63.4548 341.128 64.9047 342.012 65.6254C343.252 64.4869 345.258 64.7404 347.04 64.9658C347.16 64.9809 347.279 64.9959 347.396 65.0104ZM349.867 73.0156C349.791 73.2437 349.49 73.3234 349.234 73.3571C346.883 73.6663 344.409 73.0791 342.512 71.7618C342.06 71.4478 341.61 71.0419 341.561 70.5219C341.513 70.0018 342.121 69.4492 342.622 69.6934C345.24 70.9717 348.679 70.6451 350.961 68.9012C351.502 68.4872 352.415 68.9897 352.489 69.6348C352.563 70.2799 352.05 70.8716 351.449 71.2086C351.09 71.4102 350.696 71.5479 350.301 71.6858C350.036 71.7783 349.771 71.871 349.516 71.9832C349.407 72.3506 349.55 72.7709 349.867 73.0156ZM342.594 83.9454C344.411 82.6362 346.073 80.4307 345.288 78.3466C342.028 82.72 336.36 85.2138 330.895 84.6789C329.961 84.5875 329.151 85.4872 329.068 86.4124C328.985 87.3377 329.449 88.229 330.022 88.9649C332.67 92.3675 337.847 93.2896 341.816 91.5502C345.784 89.8107 348.476 85.8207 349.254 81.5956C349.412 80.7316 349.482 79.7719 348.989 79.0411C348.497 78.3102 347.237 78.078 346.754 78.8148C347.598 80.0174 347.572 81.6317 347.192 83.0468C346.403 85.9849 344.173 88.5086 341.336 89.6742C338.498 90.8398 335.117 90.6209 332.458 89.0994C332.031 88.8553 331.595 88.545 331.447 88.0799C331.298 87.6148 331.616 86.9947 332.108 87.0206C335.82 87.2157 339.589 86.1105 342.594 83.9454ZM330.386 70.6609C328.487 74.7911 323.102 75.7993 318.946 74.4185C317.753 74.0223 317.928 71.9675 318.993 71.2776C320.059 70.5876 321.424 70.8418 322.645 71.1266C323.866 71.4115 325.222 71.6846 326.303 71.0223C326.727 70.7625 327.063 70.3827 327.4 70.002C327.688 69.6763 327.976 69.3499 328.321 69.0977C329.068 68.5508 330.386 68.6136 330.595 69.5465C330.679 69.9226 330.545 70.313 330.386 70.6609ZM333.125 69.4365L332.243 76.9834C332.176 77.557 332.114 78.1647 332.362 78.6884C332.739 79.484 333.776 79.8387 334.645 79.6284C335.514 79.4182 336.208 78.753 336.656 77.9941C337.114 77.2204 336.822 75.7603 335.962 76.0606C335.732 76.141 335.568 76.3418 335.406 76.5387C335.212 76.7755 335.023 77.0068 334.729 77.0165C334.049 77.039 334.059 76.0194 334.286 75.3902C335.228 72.7725 335.374 69.8845 334.699 67.1886C333.674 67.1531 333.241 68.4383 333.125 69.4365ZM269.386 109.763C272.312 110.832 274.949 112.67 276.956 115.04C277.191 115.317 277.425 115.618 277.483 115.976C277.57 116.505 277.19 117.067 276.665 117.188C273.65 113.787 269.476 111.419 264.996 110.566C265.684 109.085 267.845 109.2 269.386 109.763ZM251.064 456.46C250.262 456.393 249.44 456.324 248.76 456.04C248.392 455.886 248.069 455.668 247.746 455.449L247.746 455.449C247.437 455.24 247.128 455.031 246.78 454.879C246.068 454.567 245.009 454.612 244.683 455.243C247.039 457.374 250.756 458.297 254.058 457.57C253.515 456.666 252.314 456.565 251.064 456.46ZM368.723 413.823L374.653 412.543C375.167 412.432 375.903 412.522 375.934 413.167C373.243 415.477 369.714 416.22 366.559 415.142C366.985 414.258 367.905 413.999 368.723 413.823ZM285.576 270.124C284.389 270.414 283.193 270.706 282.183 271.343C284.444 272.411 287.191 271.706 289.494 270.718C294.671 268.497 299.16 264.901 302.293 260.465C303.506 258.746 304.549 256.629 303.813 254.689C302.636 254.906 302.086 256.136 301.638 257.174C299 263.29 293.195 268.14 286.384 269.922C286.118 269.992 285.85 270.057 285.581 270.123L285.576 270.124ZM386.871 272.84C386.253 273.74 384.843 273.473 383.832 273.029C376.003 269.582 370.778 261.138 371.279 252.745C371.302 252.374 371.351 251.968 371.627 251.714C371.904 251.46 372.476 251.532 372.533 251.899C373.047 255.211 373.57 258.556 374.821 261.674C376.071 264.792 378.131 267.709 381.09 269.391C381.702 269.739 382.354 270.037 383.005 270.335L383.006 270.335C384.447 270.994 385.883 271.65 386.871 272.84ZM308.197 418.054C306.308 417.546 304.407 417.036 302.496 417.233C306.255 420.354 311.952 421.203 316.544 419.327C316.711 418.591 315.454 418.528 314.682 418.71C312.534 419.218 310.373 418.638 308.197 418.054ZM325.72 253.102C326.482 253.264 327.087 252.492 327.48 251.82C329.129 249.008 330.206 247.984 332.361 245.935L332.361 245.935L332.503 245.799C332.618 247.36 332.74 248.272 332.862 249.184C332.984 250.095 333.106 251.007 333.221 252.568C333.258 253.074 333.307 253.613 333.618 254.013C334.488 255.132 336.327 254.171 337.067 252.962C338.783 250.159 338.274 246.193 335.905 243.914C335.297 243.329 336.194 242.231 337.022 242.394C337.85 242.556 338.358 243.38 338.711 244.145C339.738 246.37 340.334 248.892 339.791 251.281C339.247 253.67 337.362 255.851 334.937 256.208C334.08 256.334 333.128 256.203 332.503 255.604C331.819 254.947 331.691 253.916 331.604 252.972L331.32 249.895C330.513 250.385 329.998 251.21 329.485 252.032C328.922 252.934 328.363 253.83 327.426 254.27C325.951 254.963 324.065 254.092 323.301 252.653C322.537 251.214 322.729 249.417 323.417 247.94C324.105 246.463 325.231 245.242 326.354 244.06C327.033 243.346 327.757 242.611 328.695 242.306C329.633 242.001 330.841 242.29 331.247 243.188C327.641 244.035 324.826 247.499 324.735 251.199C324.716 251.976 324.959 252.941 325.72 253.102ZM210.444 444.376C210.589 444.58 210.816 444.683 211.036 444.767C215.179 446.35 219.643 444.207 223.601 442.108C224.052 441.869 224.584 441.315 224.283 440.868C224.129 440.64 223.835 440.617 223.581 440.631C222.046 440.714 220.561 441.402 219.095 442.082C217.1 443.007 215.139 443.916 213.131 443.267C212.977 443.218 212.824 443.159 212.671 443.101C212.202 442.921 211.732 442.741 211.249 442.82C210.609 442.924 210.039 443.808 210.444 444.376Z" fill="#00160A"/>
<path fill-rule="evenodd" clip-rule="evenodd" d="M273.272 55.2158C273.697 57.903 275.277 60.4342 277.621 62.1814C278.589 62.9029 279.129 64.0525 279.023 65.1691C279.274 65.71 278.125 65.7508 277.603 65.3929C274.544 63.2975 272.32 60.2658 271.4 56.9395C271.225 56.3044 271.115 55.5742 271.552 55.0477C271.99 54.5212 273.17 54.5683 273.272 55.2158V55.2158Z" fill="#00160A"/>
<path fill-rule="evenodd" clip-rule="evenodd" d="M262.022 88.2053C263.93 87.0293 265.982 85.5187 268.121 86.0462C262.03 92.9629 252.305 94.7782 243.616 93.2416C242.892 93.1136 242.09 92.9078 241.696 92.2345C241.303 91.5611 241.806 90.3867 242.509 90.6143C248.955 92.7026 256.169 91.812 262.022 88.2053V88.2053Z" fill="#00160A"/>
<ellipse cx="241.25" cy="117.722" rx="3.56733" ry="3.56733" fill="#FFB61D"/>
<ellipse cx="268.005" cy="129.316" rx="3.56733" ry="3.56733" fill="#FFB61D"/>
<circle cx="323.745" cy="83.3863" r="2.22958" fill="#FFB61D"/>
<circle cx="353.175" cy="81.6026" r="2.22958" fill="#FFB61D"/>
</svg>