<svg width="122" height="40" viewBox="0 0 122 40" fill="none" xmlns="http://www.w3.org/2000/svg">
<path d="M118.143 24.4279L121.53 26.6865C120.431 28.3061 117.801 31.0847 113.254 31.0847C107.608 31.0847 103.403 26.7162 103.403 21.159C103.403 15.2452 107.652 11.2333 112.779 11.2333C117.935 11.2333 120.461 15.3343 121.278 17.5483L121.724 18.6776L108.44 24.1753C109.45 26.1664 111.025 27.1768 113.254 27.1768C115.483 27.1768 117.028 26.0773 118.143 24.4279ZM107.727 20.8469L116.597 17.162C116.107 15.9287 114.651 15.052 112.912 15.052C110.698 15.052 107.623 17.0134 107.727 20.8469Z" fill="#FF302F"/>
<path d="M96.9985 1.11441H101.278V30.1783H96.9985V1.11441Z" fill="#20B15A"/>
<path d="M90.2526 12.0059H94.3833V29.6582C94.3833 36.9836 90.0594 40 84.948 40C80.1337 40 77.2362 36.7608 76.1515 34.1307L79.9405 32.5557C80.624 34.1753 82.2734 36.0921 84.948 36.0921C88.2318 36.0921 90.2526 34.0564 90.2526 30.2526V28.8261H90.104C89.1233 30.0148 87.2511 31.0847 84.8737 31.0847C79.9108 31.0847 75.364 26.7608 75.364 21.1887C75.364 15.5869 79.9108 11.2184 84.8737 11.2184C87.2362 11.2184 89.1233 12.2734 90.104 13.4324H90.2526V12.0059ZM90.5497 21.1887C90.5497 17.682 88.2169 15.1263 85.2451 15.1263C82.2437 15.1263 79.7177 17.682 79.7177 21.1887C79.7177 24.6508 82.2437 27.1619 85.2451 27.1619C88.2169 27.1768 90.5497 24.6508 90.5497 21.1887Z" fill="#3686F7"/>
<path d="M51.8722 21.1144C51.8722 26.835 47.4145 31.0401 41.9465 31.0401C36.4784 31.0401 32.0208 26.8202 32.0208 21.1144C32.0208 15.364 36.4784 11.1738 41.9465 11.1738C47.4145 11.1738 51.8722 15.364 51.8722 21.1144ZM47.5334 21.1144C47.5334 17.5483 44.9479 15.0966 41.9465 15.0966C38.945 15.0966 36.3595 17.5483 36.3595 21.1144C36.3595 24.6508 38.945 27.1322 41.9465 27.1322C44.9479 27.1322 47.5334 24.6508 47.5334 21.1144Z" fill="#FF302F"/>
<path d="M73.5514 21.159C73.5514 26.8796 69.0937 31.0847 63.6257 31.0847C58.1576 31.0847 53.7 26.8796 53.7 21.159C53.7 15.4086 58.1576 11.2333 63.6257 11.2333C69.0937 11.2333 73.5514 15.3938 73.5514 21.159ZM69.1977 21.159C69.1977 17.5929 66.6123 15.1412 63.6108 15.1412C60.6093 15.1412 58.0239 17.5929 58.0239 21.159C58.0239 24.6954 60.6093 27.1768 63.6108 27.1768C66.6271 27.1768 69.1977 24.6805 69.1977 21.159Z" fill="#FFBA40"/>
<path d="M15.7058 26.7311C9.47994 26.7311 4.60624 21.7088 4.60624 15.4829C4.60624 9.25706 9.47994 4.23477 15.7058 4.23477C19.0639 4.23477 21.5156 5.55721 23.3284 7.25111L26.315 4.26449C23.789 1.8425 20.416 0 15.7058 0C7.17682 0 0 6.95394 0 15.4829C0 24.0119 7.17682 30.9658 15.7058 30.9658C20.312 30.9658 23.789 29.4502 26.5082 26.627C29.3016 23.8336 30.1634 19.9108 30.1634 16.7311C30.1634 15.7355 30.0446 14.7103 29.9108 13.9525H15.7058V18.0832H25.8247C25.5275 20.6686 24.7103 22.4369 23.5067 23.6404C22.0505 25.1114 19.7474 26.7311 15.7058 26.7311Z" fill="#3686F7"/>
</svg>
