<svg width="21" height="19" viewBox="0 0 21 19" fill="none" xmlns="http://www.w3.org/2000/svg">
<path d="M17.8246 4.19136L18.2446 2.81436C18.3222 2.56068 18.4974 2.3482 18.7316 2.22368C18.9658 2.09916 19.2399 2.07278 19.4936 2.15036C19.7473 2.22793 19.9598 2.4031 20.0843 2.63734C20.2088 2.87157 20.2352 3.14568 20.1576 3.39936L18.9876 7.22436C18.9101 7.47784 18.7351 7.69017 18.501 7.81468C18.267 7.93919 17.9932 7.96569 17.7396 7.88836L13.9146 6.71836C13.7864 6.68226 13.6666 6.62091 13.5624 6.5379C13.4583 6.45489 13.3717 6.35189 13.3079 6.23497C13.244 6.11804 13.2042 5.98954 13.1907 5.857C13.1772 5.72447 13.1903 5.59058 13.2293 5.46319C13.2683 5.3358 13.3323 5.21748 13.4177 5.11519C13.503 5.01289 13.6079 4.92867 13.7263 4.86748C13.8446 4.8063 13.974 4.76937 14.1068 4.75887C14.2396 4.74838 14.3731 4.76452 14.4996 4.80636L16.1716 5.31736C15.4325 4.19625 14.4015 3.29803 13.1897 2.71944C11.9779 2.14085 10.6312 1.9038 9.29466 2.03383C7.95813 2.16386 6.6824 2.65604 5.60486 3.45737C4.52731 4.2587 3.68879 5.3388 3.1796 6.58136L2.9196 7.21436C2.87232 7.33931 2.80047 7.45352 2.70831 7.55025C2.61615 7.64697 2.50554 7.72425 2.38302 7.77751C2.26049 7.83078 2.12853 7.85895 1.99494 7.86037C1.86134 7.86179 1.72882 7.83642 1.60519 7.78577C1.48157 7.73511 1.36934 7.6602 1.27515 7.56545C1.18096 7.4707 1.1067 7.35804 1.05678 7.23412C1.00685 7.11019 0.982266 6.97752 0.984468 6.84394C0.986671 6.71035 1.01562 6.57857 1.0696 6.45636L1.3296 5.82336C1.97583 4.24663 3.03932 2.87571 4.40588 1.85778C5.77244 0.839846 7.39046 0.213359 9.08619 0.0455848C10.7819 -0.12219 12.4913 0.175085 14.0309 0.905489C15.5704 1.63589 16.8819 2.77184 17.8246 4.19136V4.19136ZM2.3026 14.8044L1.9756 16.1154C1.94635 16.2454 1.89139 16.3682 1.81398 16.4767C1.73656 16.5852 1.63824 16.6771 1.5248 16.747C1.41136 16.817 1.28508 16.8635 1.15339 16.884C1.02169 16.9044 0.887242 16.8983 0.757935 16.8661C0.628628 16.8338 0.507074 16.776 0.400416 16.6961C0.293758 16.6162 0.204149 16.5158 0.136853 16.4008C0.0695581 16.2857 0.0259349 16.1584 0.00854744 16.0263C-0.00883999 15.8942 0.000359155 15.7599 0.0356042 15.6314L1.0026 11.7514C1.03523 11.6192 1.09447 11.4952 1.17671 11.3868C1.25894 11.2784 1.36244 11.1879 1.48086 11.1208C1.59928 11.0538 1.73014 11.0117 1.86542 10.997C2.00069 10.9823 2.13755 10.9953 2.2676 11.0354L6.0956 11.9894C6.353 12.0535 6.57435 12.2173 6.71097 12.4447C6.84759 12.6721 6.88829 12.9445 6.8241 13.2019C6.75992 13.4592 6.59612 13.6806 6.36873 13.8172C6.14134 13.9538 5.869 13.9945 5.6116 13.9304L3.8256 13.4854C4.58912 14.6542 5.66836 15.5826 6.93815 16.163C8.20793 16.7433 9.61623 16.9518 10.9997 16.7642C12.3831 16.5766 13.6851 16.0007 14.7545 15.1031C15.8239 14.2056 16.6169 13.0233 17.0416 11.6934C17.0815 11.5682 17.1457 11.4521 17.2305 11.3518C17.3153 11.2515 17.419 11.1688 17.5357 11.1085C17.6524 11.0483 17.7799 11.0116 17.9108 11.0006C18.0417 10.9896 18.1735 11.0044 18.2986 11.0444C18.4238 11.0843 18.5398 11.1485 18.6402 11.2332C18.7405 11.318 18.8232 11.4217 18.8834 11.5384C18.9437 11.6552 18.9804 11.7826 18.9914 11.9135C19.0024 12.0444 18.9875 12.1762 18.9476 12.3014C18.5313 13.6073 17.8339 14.8062 16.9044 15.8136C15.9749 16.821 14.8359 17.6125 13.5676 18.1324C11.5914 18.9419 9.39824 19.0534 7.35016 18.4483C5.30208 17.8433 3.52157 16.5579 2.3026 14.8044V14.8044Z" fill="black"/>
</svg>
