<svg width="764" height="500" viewBox="0 0 764 500" fill="none" xmlns="http://www.w3.org/2000/svg">
<path fill-rule="evenodd" clip-rule="evenodd" d="M737.685 334.051C725.927 361.828 705.529 366.661 683.932 388.824C662.335 410.987 597.472 398.305 575.157 411.203C514.655 446.175 512.752 485.734 410.615 490.859C373.89 492.702 341.677 488.524 308.839 484.269C274.416 479.808 233.611 493.442 187.036 464.871C73.4201 395.175 2.74 280.584 0.0914712 220.343C-1.99132 172.969 31.956 140.319 54.8169 118.618C103.411 72.4899 165.97 85.1707 224.574 68.8553C307.264 45.8345 360.274 -2.82238 419.51 0.128404C503.136 -2.05983 555.306 65.6277 621.128 68.8553C667.93 71.1503 824.722 128.449 737.685 334.051Z" fill="#B8E5FF"/>
<path fill-rule="evenodd" clip-rule="evenodd" d="M232.631 453.504C234.267 457.341 234.398 463.158 230.378 464.273C225.074 461.662 221.294 456.184 220.737 450.298C198.984 451.247 177.232 452.195 155.479 453.144C147.394 453.497 137.416 455.22 135.009 462.947C134.069 456.858 126.029 455.459 119.869 455.542C101.462 455.789 83.0547 456.036 64.6473 456.284C64.3666 447.881 64.086 439.478 63.8053 431.075C63.7509 429.447 63.7128 427.74 64.4431 426.284C66.4037 422.374 72.0344 422.79 76.2911 423.795C74.9228 410.114 73.5546 396.433 72.1863 382.752C65.8395 384.204 67.8812 367.931 61.4928 369.188C57.6255 369.948 53.9796 366.397 53.1542 362.543C52.3288 358.689 53.5328 354.722 54.724 350.965C58.3143 349.868 63.4597 350.954 67.0983 349.868C70.7369 348.783 72.9543 346.686 72.8272 342.891C70.1877 264.086 64.4891 185.383 55.7485 107.019C50.1684 109.42 43.5235 105.088 41.2786 99.4431C39.0336 93.7987 39.9953 87.4412 41.1698 81.4813C41.582 79.3897 42.0882 77.1674 43.6242 75.689C45.5822 73.8045 48.5917 73.6864 51.3093 73.6802C136.588 73.4862 221.866 73.2921 307.144 73.0981C309.003 73.0939 311.051 73.1589 312.425 74.4108C313.68 75.5554 314.012 77.3715 314.272 79.0506C315.286 85.58 316.281 92.3873 314.288 98.687C312.295 104.987 306.336 110.561 299.774 109.79C303.364 187.565 306.953 265.34 310.543 343.115C316.394 341.836 323.236 344.002 326.154 349.231C329.072 354.461 326.411 362.364 320.567 363.673C324.295 366.773 322.496 373.371 318.393 375.955C314.29 378.539 309.071 378.275 304.243 377.834C299.414 377.393 294.261 376.923 289.979 379.198C290.989 388.569 290.864 398.063 289.605 407.405C293.758 404.928 299.379 405.188 303.286 408.036C305.999 410.013 308.464 405.201 308.438 401.844C308.379 394.026 308.319 386.208 308.259 378.39C312.494 388.102 313.672 399.12 311.587 409.507C316.807 409.914 322.028 410.322 327.249 410.729C328.818 410.851 330.518 411.028 331.669 412.102C332.815 413.172 333.112 414.847 333.311 416.402C334.597 426.437 334.405 436.66 332.744 446.64C298.918 444.295 266.822 445.044 233.198 449.418C232.354 449.418 230.994 449.667 232.631 453.504Z" fill="white"/>
<ellipse cx="192.648" cy="279.081" rx="0.564682" ry="2.25873" transform="rotate(21 192.648 279.081)" fill="#FFB61D"/>
<path fill-rule="evenodd" clip-rule="evenodd" d="M456.959 290.621C456.959 290.621 452.214 182.831 454.966 128.986C455.266 123.108 455.595 117.083 453.854 111.46C452.114 105.837 447.823 100.607 442.038 99.5178C440.898 89.431 441.05 79.1988 442.491 69.1505C525.862 69.584 609.233 70.0176 692.603 70.4511C692.905 76.7947 693.206 83.1383 693.507 89.4819C693.792 95.4882 691.414 103.992 685.521 102.796C683.127 102.31 681.978 105.613 681.852 108.053C680.818 128.093 679.784 148.133 678.75 168.173C675.676 227.731 672.601 287.377 674.664 346.979C679.992 347.245 685.32 347.51 690.649 347.776C692.062 351.122 693.506 354.681 692.979 358.275C692.452 361.869 689.116 365.312 685.564 364.552C688.659 371.768 680.402 380.816 672.933 378.391C673.532 387.02 674.131 395.649 674.73 404.278C674.843 405.906 675.012 407.67 676.117 408.87C679.563 412.616 686.947 406.833 690.586 410.393C691.079 418.88 691.572 427.367 692.065 435.854C692.199 438.168 692.213 440.805 690.531 442.401C689.402 443.471 687.775 443.788 686.241 444.047C656.335 449.104 625.679 449.701 595.598 445.814C597.214 453.547 598.462 462.686 592.994 468.388C588.96 472.594 589.388 478.63 591.205 475.781C590.853 479.478 587.414 482.617 583.7 482.633C580.514 482.97 581.148 477.645 583.322 475.292C588.097 470.123 594.271 465.499 595.791 458.629C597.311 451.759 580.679 455.262 581.149 459.467C578.14 456.073 578.533 450.227 581.969 447.265C573.01 449.309 563.715 449.87 554.576 448.917C566.119 447.167 577.662 445.418 589.206 443.668C585.92 434.573 548.459 458.652 547.629 476.755C545.833 466.337 547.157 455.402 551.387 445.714C550.369 444.098 549.051 442.672 547.518 441.532C558.044 437.411 536.908 460.003 533.475 451.42C521.907 452.737 510.34 454.055 498.772 455.372C499.19 457.49 500.283 459.47 501.852 460.953C494.993 461.947 488.104 455.411 488.736 448.508C485.363 454.595 490.568 461.85 495.927 466.29C501.286 470.729 507.783 475.716 507.556 482.671C502.229 484.538 495.684 480.741 494.66 475.19C496.596 478.795 494.391 470.902 492.053 471.641C487.716 473.012 484.544 485.143 486.631 481.11C486.402 486.533 481.154 491.22 475.739 490.837C471.902 483.301 478.241 472.768 486.697 472.63C490.182 472.573 492.249 468.205 491.331 464.842C490.413 461.48 487.6 459.03 484.928 456.791C483.13 459.14 480.808 461.085 478.18 462.443C478.095 458.478 478.874 454.497 480.448 450.857C476.894 454.894 474.89 460.263 474.929 465.642C473.115 461.208 473.277 456.008 475.363 451.696C464.847 453.487 454.169 454.327 443.503 454.202C441.746 442.018 439.989 429.835 438.232 417.651C444.828 415.868 451.661 414.964 458.494 414.971C455.071 394.478 458.494 393.908 454.241 384.681C453.663 383.427 451.61 385.823 450.213 382.999C448.816 380.175 448.192 372.821 448.192 372.821C448.192 372.821 442.488 371.988 442.038 370.452C440.274 364.428 438.29 359.045 442.581 355.804C447.156 352.348 454.319 355.309 459.113 352.164C458.105 348.184 459.48 334.279 456.199 325.635C453.616 318.832 448.238 321.874 442.511 316.953C438.796 313.76 434.744 310.509 433.121 305.886C431.499 301.264 433.712 294.933 438.564 294.258C443.308 293.598 446.896 298.292 449.322 302.422C448.23 298.777 451.147 294.502 454.939 294.188C459.632 308.985 456.959 290.621 456.959 290.621Z" fill="white"/>
<ellipse cx="538.798" cy="262.141" rx="1.12936" ry="2.25873" fill="#FFB61D"/>
<path fill-rule="evenodd" clip-rule="evenodd" d="M131.744 138.257C132.235 138.642 132.321 139.351 131.937 139.842L117.109 158.772C116.724 159.263 116.014 159.349 115.523 158.964C115.032 158.58 114.946 157.87 115.331 157.379L130.159 138.45C130.543 137.959 131.253 137.872 131.744 138.257Z" fill="#E7EAEE"/>
<path fill-rule="evenodd" clip-rule="evenodd" d="M151.059 143.678C151.533 144.082 151.59 144.795 151.186 145.27L131.341 168.555C130.936 169.029 130.223 169.086 129.749 168.682C129.274 168.277 129.217 167.564 129.622 167.09L149.466 143.805C149.871 143.33 150.584 143.273 151.059 143.678Z" fill="#E7EAEE"/>
<path fill-rule="evenodd" clip-rule="evenodd" d="M182.541 145.215C183.034 145.596 183.124 146.306 182.742 146.799L166.419 167.882C166.037 168.375 165.328 168.465 164.834 168.084C164.341 167.702 164.251 166.992 164.633 166.499L180.956 145.416C181.338 144.923 182.048 144.833 182.541 145.215Z" fill="#E7EAEE"/>
<path fill-rule="evenodd" clip-rule="evenodd" d="M226.603 143.512C227.108 143.877 227.222 144.583 226.857 145.088L213.565 163.502C213.2 164.008 212.494 164.122 211.988 163.757C211.482 163.392 211.368 162.686 211.733 162.18L225.026 143.766C225.391 143.261 226.097 143.147 226.603 143.512Z" fill="#E7EAEE"/>
<path fill-rule="evenodd" clip-rule="evenodd" d="M528.576 140.217C529.019 140.657 529.022 141.372 528.583 141.814L513.016 157.511C512.577 157.954 511.862 157.957 511.419 157.518C510.976 157.079 510.973 156.364 511.412 155.921L526.979 140.224C527.418 139.781 528.133 139.778 528.576 140.217Z" fill="#E7EAEE"/>
<path fill-rule="evenodd" clip-rule="evenodd" d="M550.111 144.589C550.544 145.039 550.53 145.754 550.081 146.186L529.628 165.871C529.178 166.303 528.463 166.29 528.031 165.84C527.598 165.391 527.612 164.676 528.061 164.243L548.514 144.559C548.964 144.126 549.679 144.14 550.111 144.589Z" fill="#E7EAEE"/>
<path fill-rule="evenodd" clip-rule="evenodd" d="M599.244 154.461C599.676 154.912 599.66 155.627 599.209 156.058L585.725 168.955C585.274 169.386 584.559 169.37 584.128 168.919C583.697 168.468 583.713 167.754 584.164 167.322L597.648 154.426C598.098 153.994 598.813 154.01 599.244 154.461Z" fill="#E7EAEE"/>
<path fill-rule="evenodd" clip-rule="evenodd" d="M624.896 155.368C625.321 155.825 625.295 156.54 624.838 156.964L610.856 169.961C610.399 170.386 609.684 170.36 609.26 169.903C608.835 169.446 608.861 168.732 609.318 168.307L623.3 155.31C623.757 154.885 624.471 154.911 624.896 155.368Z" fill="#E7EAEE"/>
<path fill-rule="evenodd" clip-rule="evenodd" d="M378.724 238.097C378.273 234.137 378.079 230.148 378.144 226.164C375.638 225.183 372.85 225.344 370.165 225.519C359.911 226.19 349.658 226.86 339.404 227.531C337.71 227.642 335.979 227.749 334.338 227.31C332.663 226.861 330.746 225.894 329.358 226.935C328.155 227.837 328.255 229.639 328.474 231.126C328.887 233.924 329.3 236.722 329.713 239.52C329.783 239.996 329.877 240.516 330.245 240.824C330.585 241.109 331.065 241.135 331.508 241.146C345.894 241.528 360.294 241.396 374.671 240.75C376.492 240.668 378.931 239.908 378.724 238.097V238.097Z" fill="white"/>
<path fill-rule="evenodd" clip-rule="evenodd" d="M427.93 171.068C428.248 169.821 427.083 168.6 425.824 168.332C424.566 168.064 423.275 168.455 422.027 168.769C417.055 170.018 403.242 170.013 401.366 170.026C395.878 170.063 390.39 170.101 384.902 170.139C383.602 170.148 382.501 171.218 382.039 172.434C381.577 173.649 381.619 174.99 381.667 176.289C381.717 177.632 381.767 178.974 381.817 180.317C381.847 181.117 381.952 182.052 382.639 182.464C382.936 182.642 383.293 182.684 383.637 182.721C388.958 183.282 394.321 183.431 399.664 183.168C409.117 182.701 418.573 180.945 427.987 181.917C427.046 178.384 427.026 174.61 427.93 171.068Z" fill="white"/>
<path fill-rule="evenodd" clip-rule="evenodd" d="M597.984 450.733C598.095 449.957 598.73 449.346 599.432 448.997C601.346 448.044 603.762 448.707 605.377 450.108C606.992 451.509 607.949 453.51 608.714 455.507C608.986 456.218 609.212 457.102 608.71 457.674C608.521 457.889 608.256 458.019 607.993 458.131C605.783 459.065 603.136 458.96 601.056 457.763C598.977 456.567 597.541 454.277 597.472 451.878C598.372 451.998 598.814 452.996 599.282 453.775C600.889 456.448 604.75 457.457 607.46 455.912C604.894 453.314 601.556 451.49 597.984 450.733Z" fill="#00160A"/>
<path fill-rule="evenodd" clip-rule="evenodd" d="M584.759 427.876C585.538 426.909 586.318 425.943 587.097 424.976C586.582 429.318 583.013 433.12 578.712 433.909C577.385 432.889 575.135 433.568 574.593 435.152C573.794 435.315 572.989 434.688 572.726 433.915C572.464 433.143 572.632 432.287 572.929 431.528C573.378 430.382 574.102 429.369 574.819 428.369C577.236 424.997 580.031 421.37 584.095 420.538C585.146 420.323 586.331 420.343 587.177 421.002C588.024 421.66 588.259 423.123 587.413 423.782C586.433 422.467 584.46 422.251 582.929 422.842C581.399 423.433 580.207 424.646 579.065 425.825C577.96 426.967 576.854 428.109 575.748 429.251C575.141 429.879 574.586 431.039 575.346 431.469C576.213 429.606 578.837 429.455 580.354 428.071C581.668 426.871 582.549 424.576 584.303 424.875C583.389 426.983 581.726 428.758 579.683 429.809C578.805 430.26 577.785 430.652 577.348 431.537C578.703 432.156 580.343 431.806 581.604 431.012C582.865 430.218 583.824 429.036 584.759 427.876Z" fill="#00160A"/>
<path fill-rule="evenodd" clip-rule="evenodd" d="M548.01 423.407C550.152 423.785 552.475 422.585 553.406 420.619C554.337 418.653 553.794 416.095 552.144 414.677C552.62 414.094 553.541 414.021 554.207 414.372C554.873 414.723 555.309 415.405 555.56 416.114C556.362 418.388 555.467 420.984 553.904 422.82C552.341 424.656 550.2 425.885 548.105 427.078C547.134 427.63 546.12 428.196 545.005 428.265C543.891 428.334 542.65 427.744 542.357 426.666C542.261 426.314 542.282 425.91 542.503 425.619C543.589 424.197 546.145 427.572 547.313 426.217C547.032 425.132 546.752 424.047 546.471 422.962C546.976 423.138 547.484 423.314 548.01 423.407Z" fill="#00160A"/>
<path fill-rule="evenodd" clip-rule="evenodd" d="M528.37 420.071C525.98 419.78 524.279 417.197 524.541 414.804C524.802 412.411 526.678 410.396 528.909 409.493C529.593 409.217 530.446 409.054 531.01 409.529C531.573 410.004 531.186 411.235 530.482 411.017C528.758 410.484 527.111 412.216 526.634 413.956C526.33 415.063 526.312 416.318 526.925 417.288C527.539 418.258 528.919 418.782 529.9 418.185C530.607 417.755 531.327 418.751 531.494 419.562C531.662 420.372 532.034 421.443 532.856 421.346C534.209 420.674 534.714 419.051 535.484 417.753C536.254 416.454 537.997 415.324 539.183 416.26C539.335 416.38 539.472 416.545 539.481 416.739C539.49 416.95 539.347 417.133 539.211 417.295C537.891 418.856 536.432 420.299 534.857 421.603C533.803 422.475 532.343 423.319 531.152 422.646C530.024 422.008 529.656 420.227 528.37 420.071Z" fill="#00160A"/>
<path fill-rule="evenodd" clip-rule="evenodd" d="M539.874 444.556C538.705 443.517 537.514 442.452 536.751 441.087C535.987 439.722 535.717 437.979 536.457 436.601C536.659 436.224 536.971 435.86 537.394 435.791C537.816 435.723 538.302 436.116 538.179 436.526C537.64 438.32 538.424 440.426 540.004 441.431C540.615 441.82 541.435 442.548 540.922 443.059C540.311 443.668 541.424 444.493 542.275 444.632C543.91 444.899 545.545 445.166 547.179 445.433C546.86 446.781 545.198 447.435 543.844 447.146C542.489 446.857 541.389 445.903 540.354 444.983C540.194 444.84 540.034 444.698 539.874 444.556Z" fill="#00160A"/>
<path fill-rule="evenodd" clip-rule="evenodd" d="M479.659 485.533C479.822 484.531 479.984 483.528 480.146 482.526C480.24 481.951 480.337 481.364 480.613 480.851C480.944 480.238 481.501 479.785 482.043 479.349C483.532 478.152 485.021 476.955 486.51 475.758C487.682 476.651 487.918 478.544 487.001 479.697C486.925 478.635 486.236 477.639 485.269 477.194C484.187 480.407 482.228 483.32 479.659 485.533Z" fill="#00160A"/>
<path fill-rule="evenodd" clip-rule="evenodd" d="M594.546 470.834C595.096 473.783 596.225 476.623 597.851 479.144C599.13 481.13 597.959 483.727 596.788 485.778C596.259 485.984 595.76 485.297 595.848 484.737C595.936 484.177 596.345 483.731 596.61 483.229C597.649 481.262 596.359 478.928 595.213 477.02C594.068 475.113 593.083 472.51 594.546 470.834L594.546 470.834Z" fill="#00160A"/>
<path fill-rule="evenodd" clip-rule="evenodd" d="M381.394 240.69C381.371 241.374 381.339 242.093 380.981 242.676C380.33 243.74 378.899 243.948 377.655 244.042C360.874 245.299 344.012 245.48 327.208 244.583C326.999 244.572 326.784 244.559 326.595 244.468C326.132 244.242 326.007 243.652 325.938 243.142C325.47 239.728 325.003 236.314 324.535 232.9C324.201 230.458 323.918 227.771 325.271 225.711C327.112 222.911 331.014 222.578 334.364 222.531C349.59 222.318 364.816 222.104 380.042 221.891C380.683 221.882 381.442 221.933 381.783 222.477C381.98 222.791 381.974 223.187 381.961 223.557C381.772 229.268 381.583 234.979 381.394 240.69ZM378.725 238.097C378.274 234.137 378.08 230.149 378.144 226.164C375.638 225.183 372.851 225.344 370.166 225.519C359.912 226.19 349.658 226.86 339.405 227.531C337.71 227.642 335.979 227.749 334.339 227.31C332.663 226.861 330.746 225.894 329.359 226.935C328.156 227.837 328.255 229.639 328.475 231.126C328.888 233.924 329.3 236.722 329.713 239.52C329.784 239.996 329.877 240.516 330.246 240.824C330.586 241.109 331.066 241.135 331.509 241.146C345.895 241.528 360.295 241.396 374.671 240.75C376.493 240.669 378.931 239.908 378.725 238.097V238.097Z" fill="#FFB61D"/>
<path fill-rule="evenodd" clip-rule="evenodd" d="M582.233 456.154C583 453.452 584.358 450.92 586.184 448.786C586.152 451.683 584.629 454.524 582.233 456.154L582.233 456.154Z" fill="#00160A"/>
<path fill-rule="evenodd" clip-rule="evenodd" d="M589.11 472.493C588.609 474.037 587.837 475.493 586.84 476.774C586.415 477.319 585.873 477.873 585.182 477.907C586.08 475.818 587.111 473.578 589.11 472.493L589.11 472.493Z" fill="#00160A"/>
<path fill-rule="evenodd" clip-rule="evenodd" d="M601.417 480.763C602.526 481.539 603.636 482.316 604.745 483.093C604.992 483.266 605.268 483.577 605.092 483.822C603.407 483.66 601.881 482.391 601.417 480.763Z" fill="#00160A"/>
<path fill-rule="evenodd" clip-rule="evenodd" d="M603.449 480.329C602.302 480.681 601.329 478.802 602.278 478.068C602.922 478.692 603.397 479.489 603.638 480.353L603.449 480.329Z" fill="#00160A"/>
<path fill-rule="evenodd" clip-rule="evenodd" d="M588.861 447.999C589.698 449.059 589.726 450.584 589.274 451.856C588.823 453.128 587.961 454.207 587.115 455.258C586.324 456.24 585.324 457.319 584.067 457.224C583.852 456.369 584.645 455.633 585.292 455.034C587.262 453.209 588.552 450.667 588.861 447.999Z" fill="#00160A"/>
<path fill-rule="evenodd" clip-rule="evenodd" d="M598.196 475.723C599.598 474.445 601.702 473.992 603.505 474.581C605.308 475.169 606.741 476.775 607.119 478.633C607.397 479.996 607.536 481.904 608.92 482.039C609.169 482.93 607.582 483.266 607.008 482.541C606.434 481.817 606.539 480.791 606.394 479.878C606.008 477.435 603.367 475.598 600.943 476.085C599.954 476.284 598.606 476.644 598.196 475.723L598.196 475.723Z" fill="#00160A"/>
<path fill-rule="evenodd" clip-rule="evenodd" d="M493.734 491.395C493.063 489.242 494.602 486.768 493.656 484.722C493.345 484.049 492.8 483.52 492.322 482.952C490.746 481.079 489.854 478.642 489.847 476.193C489.845 475.447 490.183 474.465 490.925 474.538C491.901 474.633 491.651 476.089 491.586 477.068C491.464 478.926 493.082 480.359 494.1 481.917C495.617 484.238 495.848 487.344 494.691 489.864C494.266 490.791 495.11 491.756 495.697 492.591C497.222 494.765 497.096 497.954 495.403 500C494.767 499.574 494.739 498.636 494.972 497.907C495.205 497.177 495.63 496.494 495.674 495.73C495.766 494.127 494.212 492.928 493.734 491.395H493.734Z" fill="#00160A"/>
<path fill-rule="evenodd" clip-rule="evenodd" d="M526.69 264.773C527.568 263.804 529.068 264.86 530.292 265.319C532.665 266.208 535.283 264.496 537.791 264.858C536.394 267.739 532.448 268.076 529.273 267.665C528.477 267.562 527.64 267.418 527.027 266.901C526.414 266.384 526.151 265.368 526.69 264.773L526.69 264.773Z" fill="#00160A"/>
<path fill-rule="evenodd" clip-rule="evenodd" d="M532.862 255.594C532.397 255.001 532.468 254.163 532.562 253.415C532.629 252.883 532.696 252.352 532.763 251.82C532.92 250.568 533.436 248.975 534.697 248.965C536.015 248.955 536.518 250.675 536.545 251.992C536.568 253.134 536.507 254.364 535.814 255.272C535.121 256.18 533.568 256.492 532.862 255.594V255.594Z" fill="#00160A"/>
<path fill-rule="evenodd" clip-rule="evenodd" d="M524.94 249.639C525.56 249.782 525.701 250.586 525.714 251.222C525.757 253.329 525.322 256.067 523.251 256.455C522.237 254.542 522.427 252.054 523.719 250.317C524.013 249.92 524.459 249.529 524.94 249.639L524.94 249.639Z" fill="#00160A"/>
<path fill-rule="evenodd" clip-rule="evenodd" d="M529.035 252.401C529.19 252.673 529.087 253.012 528.997 253.311C528.117 256.258 529.092 259.675 531.394 261.713C529.673 262.801 527.267 261.299 526.672 259.352C526.077 257.404 526.713 255.317 527.346 253.382C527.604 252.592 528.622 251.68 529.035 252.401L529.035 252.401Z" fill="#00160A"/>
<path fill-rule="evenodd" clip-rule="evenodd" d="M431.097 184.977C428.074 185.169 425.052 185.362 422.029 185.554C408.951 186.387 395.874 187.219 382.796 188.052C380.95 188.17 378.469 187.795 378.255 185.958C377.593 180.266 377.714 174.484 378.613 168.825C378.988 166.466 382.044 165.836 384.431 165.757C398.877 165.281 413.323 164.805 427.769 164.329C429.547 164.27 431.124 165.636 431.87 167.251C432.616 168.867 432.703 170.697 432.779 172.474C432.923 175.875 433.067 179.276 433.211 182.677C433.236 183.269 433.241 183.922 432.858 184.373C432.445 184.861 431.734 184.936 431.097 184.977ZM427.93 171.068C428.248 169.822 427.082 168.6 425.824 168.332C424.566 168.064 423.275 168.455 422.027 168.769C417.054 170.018 403.242 170.013 401.366 170.026C395.878 170.063 390.39 170.101 384.902 170.139C383.602 170.148 382.501 171.218 382.039 172.434C381.577 173.649 381.619 174.99 381.667 176.289C381.717 177.632 381.767 178.974 381.817 180.317C381.846 181.117 381.952 182.052 382.639 182.464C382.936 182.642 383.292 182.684 383.637 182.721C388.957 183.282 394.321 183.431 399.664 183.168C409.117 182.701 418.573 180.945 427.987 181.917C427.045 178.384 427.026 174.61 427.93 171.068Z" fill="#FFB61D"/>
<path fill-rule="evenodd" clip-rule="evenodd" d="M212.222 416.266C211.606 416.466 210.682 416.497 210.571 415.859C211.506 414.745 213.439 414.694 214.432 415.757C213.903 416.334 213.021 416.555 212.283 416.297L212.222 416.266Z" fill="#00160A"/>
<path fill-rule="evenodd" clip-rule="evenodd" d="M538.781 245.841C539.62 246.738 540.391 247.744 540.743 248.921C540.977 249.702 539.864 250.311 539.11 250C538.356 249.69 537.933 248.909 537.484 248.228C537.036 247.548 536.374 246.858 535.561 246.916C534.737 246.974 534.2 245.849 534.606 245.129C535.012 244.409 535.996 244.183 536.789 244.416C537.582 244.65 538.217 245.237 538.781 245.841L538.781 245.841Z" fill="#00160A"/>
<path fill-rule="evenodd" clip-rule="evenodd" d="M246.562 394.929C245.573 390.182 244.476 385.41 242.407 381.024C240.338 376.638 237.204 372.618 232.955 370.281C230.717 369.05 228.244 368.32 225.887 367.335C223.002 366.129 220.281 364.532 217.82 362.602C220.017 361.364 222.738 362.527 224.977 363.687C230.196 366.391 235.536 369.186 239.473 373.551C244.714 379.36 246.87 387.266 248.428 394.933C247.863 395.257 247.126 395.255 246.562 394.929Z" fill="#00160A"/>
<path fill-rule="evenodd" clip-rule="evenodd" d="M222.091 435.912C222.101 435.533 222.185 435.085 222.532 434.933C223.636 434.452 224.007 437.563 225.002 436.885C226.159 436.096 227.792 437.82 227.189 439.083C226.585 440.347 224.682 440.527 223.571 439.675C222.459 438.824 222.054 437.311 222.091 435.912Z" fill="#00160A"/>
<path fill-rule="evenodd" clip-rule="evenodd" d="M218.401 422.177C217.157 420.094 217.605 417.414 218.49 415.156C219.025 413.794 219.843 412.365 221.239 411.929C222.636 411.493 224.469 412.841 223.918 414.196C222.614 414.613 221.257 415.11 220.37 416.153C219.483 417.196 219.291 418.955 220.322 419.856C220.834 420.303 220.732 421.123 220.504 421.765C220.277 422.406 219.964 423.096 220.193 423.737C220.421 424.378 221.545 424.587 221.705 423.926C221.882 423.198 223.011 423.228 223.545 423.753C224.078 424.278 224.291 425.054 224.783 425.617C225.276 426.181 226.345 426.389 226.679 425.719C226.997 425.081 228.036 425.123 228.469 425.689C228.902 426.255 228.814 427.085 228.47 427.71C227.723 429.068 225.812 429.629 224.449 428.889C223.648 428.455 223.095 427.684 222.417 427.075C221.738 426.466 220.768 426.001 219.931 426.361C219.131 426.705 218.434 425.609 218.473 424.739C218.513 423.869 218.848 422.924 218.401 422.177Z" fill="#00160A"/>
<path fill-rule="evenodd" clip-rule="evenodd" d="M189.12 279.658C190.737 278.259 191.312 275.784 190.478 273.816C190.167 273.081 189.864 271.932 190.639 271.741C192.998 273.804 193.199 277.87 191.054 280.155C190.681 280.553 190.182 280.92 189.641 280.847C189.101 280.774 188.708 280.014 189.12 279.658L189.12 279.658Z" fill="#00160A"/>
<path fill-rule="evenodd" clip-rule="evenodd" d="M185.379 267.198C186.584 267.23 187.491 268.446 187.594 269.646C187.698 270.847 187.203 272.012 186.676 273.096C186.35 273.766 185.805 274.537 185.07 274.412C184.517 274.317 184.194 273.75 183.955 273.241C183.425 272.11 182.91 270.902 183.029 269.658C183.147 268.415 184.13 267.164 185.379 267.198V267.198Z" fill="#00160A"/>
<path fill-rule="evenodd" clip-rule="evenodd" d="M193.836 272.849C192.802 273.131 192.23 271.666 192.262 270.595C192.291 269.647 192.425 268.656 192.98 267.886C193.534 267.117 194.915 266.193 195.442 267.467C195.969 268.741 195.655 270.67 194.673 272.128C194.463 272.44 194.199 272.75 193.836 272.849Z" fill="#00160A"/>
<path fill-rule="evenodd" clip-rule="evenodd" d="M181.96 280.327C182.314 280.261 182.668 280.195 183.022 280.128C183.129 281.31 184.276 282.11 185.38 282.543C186.484 282.977 187.714 283.253 188.544 284.102C188.844 284.408 189.05 284.97 188.702 285.22C188.548 285.329 188.344 285.326 188.156 285.314C185.259 285.123 182.109 283.227 181.96 280.327Z" fill="#00160A"/>
<path fill-rule="evenodd" clip-rule="evenodd" d="M181.577 265.515C180.788 265.337 180.766 264.072 181.416 263.591C182.065 263.109 182.973 263.218 183.75 263.444C185.463 263.941 187.038 264.902 188.264 266.196C186.134 267.146 183.473 264.156 181.577 265.515V265.515Z" fill="#00160A"/>
<path fill-rule="evenodd" clip-rule="evenodd" d="M132.165 421.133C134.218 422.094 136.968 420.153 136.751 417.897C138.073 419.041 139.531 420.654 138.937 422.298C138.716 422.912 138.232 423.394 137.716 423.794C135.911 425.195 133.622 425.814 131.365 426.167C129 426.538 126.346 426.579 124.484 425.075C122.645 423.59 122.14 420.694 123.368 418.674C123.671 418.176 124.098 417.71 124.664 417.571C125.903 417.266 126.944 418.713 126.929 419.988C126.914 421.264 126.276 422.447 126.063 423.705C126.025 423.929 126.001 424.162 126.057 424.382C126.288 425.301 127.696 425.334 128.396 424.695C129.095 424.055 129.354 423.078 129.837 422.263C130.32 421.448 131.306 420.731 132.165 421.133ZM132.204 425.078C132.604 424.704 133.004 424.33 133.403 423.957C133.253 423.477 132.609 423.233 132.179 423.493C131.749 423.752 131.664 424.436 132.018 424.792L132.204 425.078Z" fill="#00160A"/>
<path fill-rule="evenodd" clip-rule="evenodd" d="M122.73 434.622C123.21 435.976 125.087 436.323 126.398 435.736C126.655 435.62 126.915 435.463 127.032 435.207C127.372 434.465 126.287 433.716 126.442 432.915C126.574 432.237 127.473 432.046 128.149 432.187C128.825 432.328 129.519 432.648 130.175 432.432C130.935 432.182 131.296 431.326 131.486 430.548C131.676 429.771 131.826 428.911 132.432 428.389C133.037 427.866 134.261 428.092 134.286 428.891C134.335 430.439 133.154 431.744 131.918 432.677C130.681 433.609 129.266 434.405 128.454 435.724C127.684 436.977 127.237 438.833 125.773 438.978C125.304 439.024 124.84 438.857 124.415 438.654C121.36 437.19 119.542 433.519 120.23 430.202C120.535 428.731 122.007 427.115 123.293 427.892C124.333 428.521 124.125 430.097 123.594 431.19C123.064 432.284 122.324 433.476 122.73 434.622V434.622Z" fill="#00160A"/>
<path fill-rule="evenodd" clip-rule="evenodd" d="M204.591 334.944C205.984 354.333 218.798 370.742 231.062 385.824C234.546 390.108 238.259 394.565 243.394 396.598C253.06 400.425 265.061 394.63 273.992 399.952C227.263 400.059 180.54 402.618 134.079 407.614C130.081 408.044 125.951 408.481 122.107 407.3C118.262 406.12 114.749 402.87 114.589 398.851C112.548 347.498 110.506 296.145 108.465 244.791C108.086 235.278 107.704 225.726 105.968 216.365C103.696 204.113 103.642 191.573 103.594 179.113C103.533 162.911 103.472 146.71 103.41 130.508C156.076 128.228 208.824 127.841 261.517 129.348C263.679 132.564 264.116 136.599 264.478 140.457C270.593 205.767 272.491 271.389 274.387 336.958C274.955 356.605 275.523 376.252 276.09 395.899C275.116 395.574 274.141 395.249 273.167 394.924C270.87 332.879 268.573 270.834 266.276 208.789C266.232 207.604 266.111 206.261 265.177 205.531C264.461 204.972 263.478 204.951 262.57 204.954C213.723 205.132 164.877 205.31 116.031 205.488C112.243 205.502 106.923 207.472 108.152 211.054C114.085 228.351 111.993 247.194 112.064 265.48C112.103 275.642 112.834 285.787 113.563 295.923C114.454 308.285 115.344 320.646 116.234 333.008C118.348 327.522 120.462 322.036 122.576 316.55C123.066 315.278 123.509 313.693 122.604 312.672C115.885 305.092 117.991 291.549 126.696 286.368C128.367 285.373 130.238 284.638 131.607 283.256C135.459 279.369 133.638 272.511 136.479 267.834C140.696 260.889 153.724 260.629 154.177 252.517C154.586 245.19 161.238 239.28 168.441 237.876C175.644 236.473 183.108 238.757 189.595 242.189C195.928 245.538 202.205 250.972 202.478 258.131C202.585 260.947 201.729 263.701 200.883 266.39C197.816 276.129 194.214 286.611 185.744 292.313C196.672 303.792 203.456 319.136 204.591 334.944ZM196.54 360.865C202.828 373.245 214.763 382.063 220.9 394.518C221.175 395.077 221.462 395.67 221.982 396.013C222.574 396.403 223.334 396.384 224.043 396.364C229.411 396.211 234.798 396.761 240.024 397.996C227.653 387.267 218.322 373.501 209.858 359.483C206.804 354.426 203.764 349.056 203.464 343.157C202.59 325.954 196.276 309.067 185.648 295.512C181.742 290.528 173.335 291.492 168.847 295.959C164.36 300.427 162.923 307.075 162.269 313.374C162.056 315.423 161.912 317.55 162.592 319.496C163.271 321.442 164.98 323.17 167.04 323.243C169.1 323.316 171.104 321.15 170.39 319.217C171.122 320.784 171.853 322.351 172.584 323.919C169.583 327.146 163.76 326.095 160.999 322.66C158.238 319.225 158.005 314.351 158.948 310.046C161.173 299.885 169.657 291.372 179.811 289.113C179.93 287.132 177 286.543 175.195 287.369C173.391 288.195 171.671 289.719 169.716 289.376C167.93 289.061 166.911 291.277 166.277 292.976C162.703 302.553 152.479 307.501 144.213 313.512C141.394 315.562 138.612 317.881 135.229 318.716C131.845 319.551 127.624 318.313 126.419 315.042C116.068 341.787 113.617 371.534 119.449 399.613C119.864 401.608 121.7 403.064 123.658 403.629C125.617 404.194 127.701 404.035 129.733 403.87C159.862 401.433 189.99 398.997 220.119 396.56C212.942 382.732 199.442 372.781 193.293 358.467C191.859 355.127 190.846 351.591 189.025 348.446C186.267 343.683 181.77 340.02 179.518 334.999C176.799 338.738 174.08 342.478 171.361 346.218C170.749 347.06 171.032 348.228 171.34 349.222C172.021 351.426 172.734 353.688 174.185 355.48C175.636 357.273 178.02 358.509 180.254 357.935C184.81 356.766 190 358.734 192.635 362.63C187.063 361.579 181.491 360.529 175.919 359.478C175.112 359.325 174.265 359.155 173.639 358.623C173.108 358.172 172.804 357.516 172.515 356.882C171.478 354.605 170.442 352.328 169.405 350.051C168.501 348.066 167.614 345.668 168.767 343.816C169.743 342.248 171.772 341.777 173.294 340.73C177.493 337.839 176.943 331.443 175.03 326.718C173.116 321.993 170.248 317.128 171.354 312.151C173.619 319.514 175.936 326.988 180.165 333.427C183.286 338.181 187.384 342.261 190.246 347.176C192.775 351.518 194.264 356.385 196.54 360.865ZM107.07 135.217C107.199 146.723 107.328 158.229 107.457 169.735C107.485 172.271 108.417 175.7 110.945 175.5C160.893 171.53 211.067 170.402 261.144 172.122C262.531 172.17 263.676 170.895 263.985 169.542C264.293 168.189 263.974 166.782 263.676 165.427C261.404 155.098 260.325 144.508 260.464 133.934C260.486 132.256 258.251 131.69 256.574 131.66C207.481 130.762 158.367 131.033 109.287 132.472C108.804 132.486 108.295 132.508 107.888 132.769C107.131 133.256 107.06 134.316 107.07 135.217M266.11 200.193C266.299 191.562 265.775 182.915 264.546 174.369C260.525 175.881 256.116 176.345 251.869 175.702C247.658 175.065 243.382 175.029 239.123 174.994C219.601 174.833 200.077 174.671 180.557 175.016C156.937 175.433 133.336 176.59 109.751 177.934C109.107 177.971 108.411 178.028 107.923 178.45C107.289 178.998 107.236 179.945 107.235 180.783C107.228 187.47 107.515 194.157 108.095 200.819C108.13 201.222 108.176 201.652 108.433 201.965C108.836 202.458 109.574 202.465 110.211 202.43C156.853 199.916 203.605 201.539 250.315 201.582C255.617 201.587 260.989 201.562 266.11 200.193ZM157.261 248.38C155.996 251.434 155.944 254.983 154.13 257.747C150.446 263.362 141.295 263.284 137.85 269.048C135.059 273.715 137.191 280.507 133.528 284.526C131.687 286.546 128.848 287.27 126.55 288.748C121.732 291.847 119.722 298.367 121.202 303.9C122.681 309.434 127.196 313.86 132.483 316.065C133.423 316.457 134.432 316.791 135.442 316.667C136.584 316.527 137.567 315.824 138.494 315.144C144.893 310.453 151.291 305.762 157.69 301.071C160.046 299.344 162.492 297.511 163.764 294.881C165.92 290.427 164.363 284.403 167.763 280.808C169.076 279.421 170.96 278.639 172.138 277.136C173.316 275.633 173.171 272.818 171.303 272.423C169.267 271.992 169.804 268.752 171.421 267.441C173.038 266.13 175.336 265.31 175.944 263.319C176.518 261.442 175.655 258.634 177.512 257.997C178.58 257.631 179.638 258.463 180.584 259.079C184.755 261.799 191.053 260.376 193.65 256.127C194.659 254.476 197.257 256.234 197.729 258.11C198.201 259.987 198.272 262.406 200.054 263.162C201.818 260.394 201.286 256.63 199.557 253.84C197.828 251.05 195.104 249.042 192.382 247.207C186.797 243.443 180.669 240.014 173.952 239.508C167.236 239.002 159.838 242.157 157.261 248.38ZM177.28 272.555C175.727 278.249 167.728 280.717 167.071 286.582C168.568 288.223 171.311 287.448 173.161 286.218C174.103 285.592 175.013 284.846 175.528 283.838C176.042 282.83 176.074 281.508 175.35 280.639C174.721 279.883 176.139 278.859 176.98 279.367C177.821 279.876 178.032 280.973 178.287 281.922C178.833 283.946 179.949 285.813 181.473 287.251C182.744 288.449 184.599 289.378 186.203 288.686C186.863 288.401 187.387 287.876 187.875 287.348C192.944 281.871 196.096 274.654 196.669 267.213C196.734 266.369 196.698 265.37 196.005 264.881C195.325 264.402 194.402 264.68 193.578 264.792C192.753 264.905 191.658 264.595 191.62 263.764C192.562 262.851 194.173 262.741 195.231 263.516C195.677 263.843 196.115 263.071 196.099 262.519C196.054 260.939 195.545 259.375 194.653 258.07C192.689 260.26 190.141 262.036 187.249 262.575C184.358 263.113 181.118 262.245 179.253 259.97C178.127 262.373 177.628 265.065 177.817 267.712C177.885 268.662 176.503 268.955 175.601 268.649C174.699 268.343 173.669 267.809 172.875 268.336C172.104 268.847 172.191 270.09 172.808 270.78C173.424 271.469 174.366 271.747 175.257 271.994C175.932 272.181 176.606 272.368 177.28 272.555ZM120.443 327.491C120.581 326.906 120.645 326.141 120.117 325.853C118.791 329.754 117.546 333.683 116.381 337.635C115.934 339.153 115.517 340.866 116.285 342.249C116.839 342.273 117.122 341.606 117.249 341.066C118.314 336.541 119.379 332.016 120.443 327.491Z" fill="#00160A"/>
<path fill-rule="evenodd" clip-rule="evenodd" d="M245.177 441.636C273.932 439.317 302.819 438.639 331.652 439.605C330.811 429.911 329.97 420.217 329.13 410.524C299.715 411.849 270.3 413.175 240.885 414.501C239.98 423.112 236.64 431.454 231.351 438.31C228.804 441.613 230.994 446.279 232.63 450.116C234.267 453.953 234.398 459.77 230.378 460.885C225.074 458.274 221.294 452.796 220.736 446.91C198.984 447.859 177.231 448.807 155.479 449.756C147.394 450.109 137.416 451.832 135.009 459.559C134.069 453.47 126.029 452.071 119.869 452.154C101.462 452.401 83.0543 452.648 64.6469 452.896C64.3663 444.493 64.0856 436.09 63.8049 427.687C63.7506 426.059 63.7125 424.352 64.4427 422.896C66.4033 418.986 72.0341 419.402 76.2907 420.406C74.9225 406.726 73.5542 393.045 72.1859 379.364C65.8391 380.816 67.8809 364.543 61.4924 365.799C57.6251 366.56 53.9792 363.009 53.1538 359.155C52.3285 355.301 53.5324 351.334 54.7236 347.577C58.314 346.48 63.4594 347.566 67.0979 346.48C70.7365 345.395 72.954 343.298 72.8269 339.503C70.1873 260.698 64.4887 181.995 55.7481 103.631C50.168 106.032 43.5231 101.7 41.2782 96.0551C39.0333 90.4106 39.9949 84.0532 41.1694 78.0933C41.5816 76.0017 42.0878 73.7794 43.6238 72.301C45.5818 70.4164 48.5913 70.2984 51.3089 70.2922C136.587 70.0981 221.866 69.9041 307.144 69.7101C309.003 69.7058 311.051 69.7708 312.424 71.0228C313.68 72.1673 314.011 73.9835 314.272 75.6626C315.286 82.1919 316.281 88.9993 314.288 95.299C312.294 101.599 306.336 107.173 299.774 106.402C303.363 184.177 306.953 261.952 310.543 339.727C316.393 338.448 323.235 340.614 326.154 345.843C329.072 351.073 326.41 358.975 320.566 360.285C324.295 363.385 322.495 369.983 318.393 372.567C314.29 375.151 309.071 374.887 304.242 374.446C299.414 374.005 294.26 373.535 289.978 375.81C290.989 385.181 290.863 394.675 289.604 404.017C293.757 401.54 299.378 401.799 303.286 404.648C305.998 406.625 308.463 401.813 308.438 398.456C308.378 390.638 308.319 382.82 308.259 375.002C312.493 384.714 313.671 395.732 311.586 406.119C316.807 406.526 322.028 406.934 327.248 407.341C328.818 407.463 330.518 407.64 331.669 408.714C332.814 409.784 333.112 411.459 333.311 413.014C334.596 423.049 334.404 433.272 332.744 443.252C298.918 440.907 264.859 441.932 231.236 446.306C234.723 442.701 240.177 442.039 245.177 441.636ZM144.822 416.174C147.248 409.426 156.112 408.213 163.283 408.133C166.584 408.096 169.885 408.059 173.186 408.022C180.324 407.942 187.49 407.863 194.571 408.778C195.451 409.829 196.332 410.879 197.213 411.929C200.035 411.032 203.385 412.222 205.008 414.698C209.838 409.684 215.796 405.32 222.683 404.306C229.57 403.292 237.405 406.475 240.038 412.919C240.989 409.652 242.177 406.183 244.923 404.173C247.669 402.162 252.418 402.651 253.543 405.864C257.974 400.949 266.933 401.359 270.898 406.658C270.943 404.077 274.442 403.17 276.969 403.692C279.496 404.215 282.284 405.336 284.493 404.003C286.872 402.567 287.016 399.233 286.881 396.457C282.451 305.353 278.021 214.249 273.591 123.145C273.56 122.505 273.502 121.802 273.048 121.35C272.575 120.878 271.834 120.84 271.165 120.832C213.216 120.095 155.267 119.357 97.3173 118.62C96.0725 118.604 94.6772 118.648 93.8099 119.541C92.992 120.383 92.938 121.684 92.9339 122.858C92.6788 195.947 95.5907 269.046 101.659 341.883C101.897 344.745 103.477 348.605 106.229 347.786C106.369 356.008 106.509 364.23 106.648 372.452C106.68 374.315 106.56 376.493 105.03 377.557C104.18 378.148 103.088 378.233 102.054 378.298C93.5934 378.831 85.1324 379.364 76.6715 379.898C77.9929 392.973 79.3143 406.048 80.6357 419.123C88.2081 419.377 95.8023 418.979 103.307 417.934C99.7113 406.579 98.4469 394.491 99.6145 382.637C102.152 382.846 102.951 386.129 103.081 388.672C103.391 394.774 103.702 400.876 104.012 406.979C104.177 410.206 104.421 413.66 106.409 416.208C108.397 418.756 112.811 419.621 114.752 417.037C121.667 407.833 137.39 407.382 144.822 416.174ZM305.525 303.046C302.458 237.565 299.392 172.085 296.325 106.604C216.92 105.801 137.514 104.998 58.1087 104.195C69.5179 184.115 72.7924 264.944 76.0521 345.608C83.525 346.492 91.1022 346.49 98.5747 345.603C96.4236 313.743 94.2725 281.883 92.1214 250.023C91.357 238.7 90.5924 227.375 90.2176 216.032C89.9058 206.596 89.8641 197.154 89.8223 187.713C89.7258 165.864 89.6292 144.016 89.5326 122.168C89.522 119.768 90.2753 116.543 92.6753 116.555C152.915 116.849 213.154 117.144 273.394 117.439C274.719 117.445 276.282 117.578 276.97 118.712C277.303 119.261 277.345 119.933 277.377 120.575C279.822 168.746 282.266 216.919 284.178 265.114C284.497 273.151 284.801 281.188 285.105 289.226C285.738 305.944 286.37 322.662 287.002 339.38C287.063 340.975 289.243 341.359 290.836 341.253C296.312 340.89 301.788 340.527 307.264 340.164C306.684 327.791 306.105 315.418 305.525 303.046ZM43.2681 94.1355C44.4042 98.0862 47.7099 101.723 51.8176 101.882C111.52 104.19 171.337 100.703 231.037 103.095C255.23 104.064 279.607 105.989 303.549 102.376C305.187 102.129 306.909 101.817 308.174 100.747C309.358 99.7448 309.96 98.2276 310.431 96.7499C312.372 90.6627 312.841 84.112 311.787 77.8104C311.524 76.2348 311.061 74.5148 309.722 73.6442C308.722 72.9947 307.456 72.9706 306.264 72.9678C270.3 72.8821 234.336 72.7964 198.371 72.7107C192.557 72.6968 186.742 72.683 180.927 72.6691C161.879 72.6237 142.83 72.5784 123.782 72.533C99.0194 72.474 74.2552 72.415 49.4955 72.7984C45.4683 72.8608 43.8006 77.9085 43.2491 81.8982C42.6862 85.9703 42.132 90.1847 43.2681 94.1355ZM200.8 417.471C182.385 418.138 163.971 418.806 145.557 419.474C147.076 419.812 147.231 421.991 146.574 423.402C145.916 424.812 144.786 426.147 144.934 427.696C145.399 432.562 143.89 437.588 140.823 441.394C138.65 444.091 135.532 447.454 137.331 450.414C142.501 447.867 148.437 447.505 154.192 447.188C175.337 446.024 196.482 444.861 217.627 443.697C219.004 438.572 211.429 433.79 213.532 428.917C214.012 427.804 213.245 426.577 212.515 425.609C209.533 421.652 205.752 417.291 200.8 417.471ZM67.6926 428.029C68.1388 435.222 69.0418 442.387 70.3944 449.465C88.518 449.41 106.642 449.355 124.765 449.3C125.67 449.297 126.958 448.571 126.371 447.883C123.494 444.51 120.617 441.137 117.74 437.764C116.139 435.887 114.478 433.887 114.044 431.458C113.387 427.786 115.471 423.265 112.791 420.671C98.7134 423.06 84.389 423.991 70.1209 423.443C68.1604 423.368 67.5711 426.071 67.6926 428.029ZM217.619 435.634C219.283 438.464 218.259 442.751 220.907 444.691C225.382 447.968 224.659 456.445 229.973 458.035C230.92 457.082 231.893 456.091 232.38 454.838C232.867 453.585 232.74 451.99 231.717 451.117C228.913 448.721 228.266 444.536 229.032 440.929C229.799 437.322 231.728 434.091 233.38 430.794C235.293 426.976 236.865 422.988 238.07 418.892C238.609 417.061 238.967 414.797 237.574 413.493C236.414 412.407 234.354 412.373 233.639 410.954C233.266 410.215 233.392 409.29 232.979 408.573C232.528 407.79 231.578 407.474 230.709 407.229C227.875 406.43 224.94 405.718 222.012 406.035C219.085 406.352 216.129 407.887 214.857 410.543C213.78 412.792 209.994 411.698 208.242 413.473C206.466 415.27 208.128 418.35 210.161 419.85C212.194 421.35 214.815 422.646 215.331 425.119C215.795 427.341 214.291 429.69 214.986 431.85C215.46 433.321 216.836 434.302 217.619 435.634ZM58.3141 362.446C59.1863 363.823 61.0925 363.996 62.722 364C75.4955 364.028 88.2207 362.575 100.911 361.123C103.206 360.86 103.77 357.755 103.384 355.478C102.998 353.201 102.431 350.435 104.184 348.932C89.5673 347.882 74.8643 348.037 60.2728 349.392C59.5568 349.459 58.7757 349.559 58.2787 350.078C57.7389 350.643 57.714 351.51 57.7214 352.291C57.7449 354.79 57.7684 357.29 57.7919 359.789C57.8005 360.704 57.8242 361.673 58.3141 362.446ZM140.529 415.88C137.816 414.026 134.634 412.082 131.46 412.934C130.644 413.153 129.715 413.538 129.016 413.062C125.515 410.677 119.937 412.659 118.725 416.719C118.339 418.014 116.937 418.684 116.084 419.734C115.231 420.783 115.549 422.963 116.886 422.767C117.998 422.604 118.566 424.219 118.093 425.237C117.62 426.256 116.618 426.935 116.053 427.905C114.546 430.491 116.632 433.629 118.605 435.879C121.686 439.391 124.767 442.904 127.848 446.417C130.445 449.378 133.099 452.434 134.434 456.14C136.351 454.862 135.956 451.971 135.252 449.777C134.548 447.583 133.888 444.828 135.58 443.265C136.281 442.618 137.313 442.287 137.745 441.436C138.176 440.585 136.959 439.294 136.424 440.084C135.466 441.496 133.871 442.754 132.201 442.406C130.532 442.058 129.803 439.29 131.392 438.671C131.949 439.8 133.66 439.182 134.667 438.427C136.104 437.351 137.54 436.275 138.977 435.199C140.841 433.803 142.849 432.176 143.213 429.876C143.601 427.424 142.085 424.477 143.777 422.661C142.363 421.438 143.154 419.002 142.188 417.401C141.797 416.753 141.153 416.307 140.529 415.88ZM287.584 359.187C289.185 358.409 291.004 358.246 292.778 358.092C301.88 357.301 310.974 356.409 320.056 355.416C321.187 355.293 322.356 355.155 323.334 354.574C325.303 353.406 325.904 350.621 325.02 348.509C324.136 346.397 322.08 344.952 319.895 344.269C317.71 343.587 315.379 343.566 313.09 343.586C305.508 343.654 297.93 344.118 290.397 344.975C289.061 345.127 287.566 345.383 286.789 346.48C286.093 347.465 286.22 348.789 286.377 349.985C286.779 353.052 287.181 356.12 287.584 359.187ZM70.9892 374.68C72.0336 376.343 74.2164 376.94 76.1763 376.814C78.1363 376.689 80.0128 375.995 81.9504 375.674C88.1848 374.643 94.9104 377.479 100.741 375.042C101.204 374.848 101.675 374.605 101.957 374.189C102.234 373.778 102.286 373.26 102.325 372.766C102.509 370.406 102.573 368.036 102.516 365.67C102.508 365.301 102.476 364.887 102.198 364.644C101.984 364.456 101.679 364.422 101.394 364.4C91.0747 363.605 80.8254 366.826 70.4763 366.675C69.7821 366.665 69.6089 367.634 69.6811 368.324C69.806 369.518 69.9599 370.709 70.1427 371.896C70.2914 372.862 70.4697 373.852 70.9892 374.68ZM319.327 361.202C319.233 360.709 319.106 360.188 318.741 359.845C318.223 359.359 317.421 359.394 316.714 359.459C308.469 360.218 300.229 361.029 291.995 361.892C290.869 362.01 289.575 362.234 289.015 363.217C288.331 364.416 289.182 365.884 289.237 367.263C289.272 368.127 288.996 369.056 289.402 369.82C289.941 370.835 291.324 370.951 292.473 370.932C295.808 370.875 299.143 370.765 302.477 370.655C307.678 370.483 312.879 370.311 318.081 370.14C319.106 370.106 319.543 368.829 319.639 367.808C319.848 365.606 319.742 363.374 319.327 361.202ZM287.579 407.02C287.157 406.788 286.845 406.388 286.421 406.161C285.518 405.679 284.396 406.106 283.553 406.685C282.709 407.265 281.931 408.014 280.933 408.242C279.935 408.469 278.649 407.833 278.705 406.811C278.783 405.408 276.753 404.856 275.485 405.462C274.218 406.068 273.298 407.28 271.989 407.789C271.118 408.128 270.095 408.148 269.38 408.75C268.666 409.351 268.828 410.896 269.759 410.831C279.382 410.154 289.004 409.477 298.627 408.8C299.437 408.743 300.379 408.607 300.782 407.902C301.393 406.83 300.067 405.535 298.833 405.559C297.599 405.583 296.522 406.347 295.377 406.804C293.391 407.598 291.174 407.471 289.04 407.332C288.539 407.299 288.02 407.262 287.579 407.02ZM171.16 415.367C178.609 414.898 186.058 414.429 193.507 413.96C193.948 413.932 194.432 413.885 194.738 413.566C195.331 412.947 194.695 411.837 193.864 411.629C193.032 411.42 192.176 411.758 191.345 411.968C190.514 412.177 189.502 412.206 188.941 411.558C187.76 410.197 185.434 412.945 183.899 412.002C181.781 410.702 179.282 409.947 176.806 410.153C174.33 410.36 171.9 411.596 170.497 413.646C170.152 414.15 169.932 414.963 170.459 415.273C170.666 415.394 170.921 415.382 171.16 415.367ZM251.727 404.538C250.588 403.894 249.194 404.763 248.275 405.695C247.174 406.81 246.212 408.609 247.182 409.839C247.848 410.683 249.076 410.761 250.151 410.767C252.709 410.783 255.268 410.798 257.826 410.813C258.285 410.816 258.764 410.814 259.173 410.605C259.801 410.285 260.101 409.568 260.352 408.909C260.851 407.599 261.228 405.838 260.082 405.029C259.654 404.727 259.11 404.655 258.59 404.592C257.484 404.457 256.195 404.385 255.437 405.202C254.412 406.307 254.824 408.589 253.388 409.048C252.657 407.566 253.166 405.351 251.727 404.538ZM165.667 414.833C166.031 414.816 166.406 414.797 166.737 414.644C167.932 414.09 167.651 412.095 166.499 411.458C165.347 410.82 163.894 411.195 162.73 411.81C161.673 412.369 160.416 411.751 159.288 411.357C156.178 410.269 152.489 411.064 150.104 413.337C149.489 413.922 148.93 414.828 149.344 415.569C154.785 415.324 160.226 415.078 165.667 414.833ZM262.16 411.089C262.347 411.21 262.58 411.229 262.802 411.239C264.495 411.318 266.608 410.714 266.88 409.041C267.038 408.07 266.369 407.036 265.419 406.782C263.794 406.349 262.358 408.036 261.905 409.656C261.764 410.158 261.722 410.807 262.16 411.089ZM245.543 407.796C245.62 407.088 245.23 406.022 244.598 406.351C243.948 407.546 243.55 408.878 243.436 410.233C243.395 410.727 243.402 411.263 243.693 411.664C243.983 412.065 244.654 412.213 244.968 411.83C245.121 411.645 245.153 411.391 245.179 411.152C245.3 410.033 245.422 408.915 245.543 407.796ZM138.88 437.441C138.384 438.423 138.737 439.751 139.656 440.357C140.297 439.569 140.98 438.618 140.742 437.631C140.504 436.643 138.743 436.341 138.596 437.346M200.693 415.178C201.358 415.277 202.202 415.178 202.447 414.552C201.735 414.024 200.776 413.846 199.922 414.084C199.724 414.343 199.651 414.693 199.729 415.01C200.006 415.194 200.359 415.26 200.684 415.187L200.693 415.178Z" fill="#00160A"/>
<path fill-rule="evenodd" clip-rule="evenodd" d="M639.221 131.068C641.834 131.136 644.795 131.367 646.441 133.398C647.795 135.069 647.796 137.423 647.732 139.573C645.208 224.199 642.199 308.81 638.702 393.401C635.57 368.745 636.744 343.769 637.923 318.943C639.992 275.384 642.06 231.826 644.129 188.267C643.975 195.677 641.401 205.572 633.992 205.354C592.997 204.145 552.001 202.937 511.005 201.728C507.825 201.634 503.937 201.065 502.809 198.091C547.845 199.311 592.881 200.53 637.916 201.75C639.865 194.689 640.382 187.235 639.427 179.972C594.249 179.085 549.071 178.197 503.893 177.309C502.955 174.859 506.696 173.478 509.319 173.535C552.051 174.452 594.782 175.37 637.514 176.287C639.777 176.336 640.633 173.38 640.782 171.121C641.42 161.488 642.057 151.855 642.694 142.222C642.833 140.108 642.893 137.743 641.483 136.161C640.023 134.523 637.563 134.36 635.37 134.314C591.5 133.389 547.63 132.464 503.759 131.539C500.854 189.085 499.949 246.732 501.046 304.341C505.537 292.696 514.956 283.046 526.488 278.275C518.849 271.138 516.373 259.027 520.597 249.465C515.734 251.971 511.626 244.218 513.107 238.951C513.543 237.399 515.961 235.904 516.599 234.361C518.125 230.667 517.408 228.345 516.694 223.27C515.979 218.194 522.927 216.752 527.078 219.224C531.23 221.696 535.338 226.02 539.97 224.647C545.589 222.982 551.548 227.437 553.666 232.901C555.785 238.365 555.077 244.464 554.338 250.277C553.272 258.669 550.552 268.954 542.263 270.645C541.644 276.629 550.445 277.49 556.377 278.492C564.465 279.86 571.117 286.025 575.008 293.246C578.899 300.468 580.429 308.699 581.655 316.81C585.584 342.797 586.841 369.943 578.359 394.819C597.673 394.513 616.986 394.206 636.3 393.899C625.069 397.812 612.926 397.965 601.033 397.992C568.511 398.068 535.988 397.524 503.488 396.359C501.533 396.289 499.405 396.15 497.946 394.848C496.384 393.452 496.073 391.162 495.893 389.074C494.736 375.634 494.873 362.083 496.302 348.668C497.505 363.575 498.708 378.481 499.911 393.387C515.693 393.972 531.475 394.556 547.258 395.141C553.253 395.363 560.854 394.538 562.721 388.837C562.71 390.717 562.698 392.597 562.686 394.478C566.82 395.378 571.129 395.468 575.298 394.743C582.543 373.453 584.01 350.228 579.501 328.196C574.628 327.675 570.491 332.296 569.463 337.087C568.434 341.879 569.587 346.826 570.153 351.694C571.588 364.016 569.134 376.761 563.227 387.668C568.275 373.23 569.387 357.436 566.411 342.433C564.246 331.518 559.95 320.831 560.39 309.712C563.931 316.35 565.626 323.961 565.237 331.475C570.046 329.476 574.856 327.477 579.666 325.477C578.883 314.649 577.995 303.448 572.832 293.898C567.67 284.348 556.984 276.879 546.333 278.983C545.388 285.639 540.862 292.632 534.153 293.062C527.443 293.491 522.277 283.195 527.999 279.667C514.464 283.495 506.503 297.098 499.97 309.555C497.358 314.534 494.684 319.803 494.869 325.422C495.053 331.041 499.233 336.95 504.855 336.924C511.368 329.949 515.151 320.488 515.241 310.945C516.931 335.623 516.86 360.421 515.029 385.088C514.843 387.59 512.156 390.904 510.761 388.819C514.186 370.04 514.592 350.714 511.96 331.808C505.894 340.171 497.556 346.869 488.083 350.991C483.733 352.883 482.615 358.625 483.327 363.315C484.038 368.005 485.96 372.626 485.345 377.329C484.729 382.032 482.183 386.362 475.582 384.681C468.981 382.999 459.44 385.714 459.44 385.714C459.44 385.714 460.677 407.383 462.826 413.832C471.112 420.263 483.549 408.083 493.118 412.376C499.07 415.047 505.851 414.899 512.371 414.703C516.443 414.58 522.168 411.518 519.796 408.207C509.435 409.295 498.959 409.281 488.6 408.163C484.146 407.683 480.885 403.373 480.106 398.961C479.326 394.55 480.463 390.05 481.591 385.714C482.28 389.261 482.031 395.455 482.413 397.992C482.796 400.529 483.909 404.73 486.697 405.002C508.562 407.138 515.898 405.75 531.203 402.18C533.893 401.552 537.208 400.76 539.97 400.778C543.276 400.798 546.367 402.58 549.575 403.375C560.713 406.135 572.388 405.274 583.829 404.395C605.911 402.698 627.992 401.002 650.074 399.305C659.063 384.174 642.013 361.21 654.126 348.44C655.148 271.672 656.171 194.903 657.193 118.134C599.748 116.32 542.245 116.323 484.799 118.145C480.874 184.782 480.13 251.607 482.569 318.316C478.927 308.792 478.672 298.359 478.512 288.164C477.649 233.058 478.298 177.93 480.458 122.86C480.557 120.337 480.818 117.485 482.796 115.914C484.28 114.735 486.322 114.634 488.217 114.585C545.035 113.131 601.891 113.156 658.708 114.661C658.708 169.268 661.604 215.995 657.836 266.512C655.745 294.541 657.193 320.512 657.193 348.668C662.664 349.325 669.899 346.732 671.643 341.506C673.387 336.279 672.715 330.599 672.159 325.117C664.685 251.491 681.659 177.192 676.133 103.394C605.336 100.152 534.408 99.7459 463.579 102.178C462.113 102.228 460.507 102.336 459.44 103.342C458.246 104.47 458.155 106.307 458.144 107.949C457.749 168.84 457.354 229.731 456.959 290.621C453.249 236.834 452.214 182.831 454.966 128.986C455.266 123.108 455.595 117.083 453.854 111.46C452.113 105.837 447.822 100.607 442.038 99.5178C440.897 89.431 441.05 79.1988 442.491 69.1505C525.861 69.584 609.232 70.0176 692.603 70.4511C692.904 76.7947 693.205 83.1383 693.507 89.4819C693.792 95.4882 691.413 103.992 685.521 102.796C683.127 102.31 681.978 105.613 681.852 108.053C680.818 128.093 679.784 148.133 678.749 168.173C675.675 227.731 672.601 287.377 674.664 346.979C679.992 347.245 685.32 347.51 690.648 347.776C692.062 351.122 693.506 354.681 692.978 358.275C692.451 361.869 689.115 365.312 685.563 364.552C688.659 371.768 680.401 380.816 672.933 378.391C673.532 387.02 674.131 395.649 674.73 404.278C674.843 405.906 675.012 407.67 676.117 408.87C679.563 412.616 686.947 406.833 690.586 410.393C691.079 418.88 691.572 427.367 692.064 435.854C692.199 438.168 692.213 440.805 690.531 442.401C689.402 443.471 687.775 443.788 686.241 444.047C656.335 449.104 625.678 449.701 595.598 445.814C597.214 453.547 598.462 462.686 592.993 468.388C588.96 472.594 581.251 475.872 583.088 481.402C586.394 480.703 589.387 478.63 591.205 475.781C590.852 479.478 587.414 482.617 583.7 482.633C580.513 482.97 581.147 477.645 583.322 475.292C588.096 470.123 594.271 465.499 595.791 458.629C597.311 451.759 589.443 443.362 583.875 447.664C580.527 450.252 580.679 455.262 581.149 459.467C578.14 456.073 578.533 450.227 581.968 447.265C573.01 449.309 563.715 449.87 554.575 448.917C566.119 447.167 577.662 445.418 589.206 443.668C585.92 434.573 586.777 424.07 591.493 415.627C584.27 414.832 576.917 415.234 569.824 416.813C567.839 417.254 565.811 417.818 564.224 419.09C562.557 420.426 561.551 422.4 560.639 424.332C552.909 440.722 548.459 458.652 547.629 476.755C545.833 466.337 547.156 455.402 551.387 445.714C550.369 444.098 549.05 442.672 547.518 441.532C558.044 437.411 563.092 423.172 557.514 413.341C556.636 411.795 555.551 410.37 554.317 409.091C546.9 401.404 533.807 400.063 524.986 406.088C521.217 410.833 523.039 412.43 521.442 415.243C520.468 416.959 518.308 418.036 517.38 419.811C517.033 420.474 516.946 421.467 516.599 422.13C519.178 424.236 522.412 425.527 525.732 425.774C525.405 429.336 525.077 432.897 524.75 436.459C526.634 436.787 528.518 437.115 530.402 437.443C527.879 439.955 530.127 445.187 533.685 445.086C537.048 455.781 540.41 466.475 543.773 477.17C540.34 468.587 536.907 460.003 533.475 451.42C521.907 452.737 510.339 454.055 498.772 455.372C499.19 457.49 500.282 459.47 501.852 460.953C494.992 461.947 488.104 455.411 488.736 448.508C485.362 454.595 490.568 461.85 495.927 466.29C501.286 470.729 507.783 475.716 507.556 482.671C502.229 484.538 495.683 480.741 494.66 475.19C496.596 478.795 500.779 481.061 504.856 480.712C502.205 478.049 499.554 475.386 496.902 472.723C498.862 473.899 500.822 475.074 502.781 476.249C503.663 473.961 501.627 471.393 499.254 470.775C496.882 470.156 494.391 470.902 492.053 471.641C487.716 473.012 483.232 474.466 479.862 477.522C476.493 480.579 474.559 485.719 476.568 489.8C480.862 488.323 484.544 485.143 486.631 481.11C486.402 486.533 481.154 491.22 475.739 490.837C471.902 483.301 478.241 472.768 486.697 472.63C490.182 472.573 492.248 468.205 491.33 464.842C490.412 461.48 487.6 459.03 484.928 456.791C483.13 459.14 480.807 461.085 478.179 462.443C478.094 458.478 478.874 454.497 480.448 450.857C476.894 454.894 474.889 460.263 474.928 465.642C473.115 461.208 473.276 456.008 475.362 451.696C464.847 453.487 454.169 454.327 443.502 454.202C441.745 442.018 439.988 429.835 438.231 417.651C444.828 415.868 451.661 414.964 458.494 414.971C455.07 394.478 458.494 393.908 454.241 384.681C453.663 383.427 451.61 385.823 450.213 382.999C448.815 380.175 448.192 372.821 448.192 372.821C448.192 372.821 442.488 371.988 442.038 370.452C440.273 364.428 438.29 359.045 442.581 355.804C447.156 352.348 454.319 355.309 459.113 352.164C457.311 345.052 456.962 337.576 458.094 330.328C460.91 335.116 459.907 341.203 461.457 346.538C463.006 351.872 470.309 356.356 473.8 352.034C468.683 342.911 461.825 329.791 454.894 321.957C450.464 316.95 444.179 318.146 439.579 312.617C434.979 307.088 433.614 305.991 431.992 301.369C430.37 296.746 432.582 290.415 437.434 289.74C442.179 289.08 445.766 293.774 448.192 297.905C447.1 294.26 450.017 289.984 453.809 289.671C458.502 304.468 467.004 318.04 478.271 328.718C481.807 332.069 488.943 334.321 490.348 329.657C487.841 325.737 492.197 321.243 494.622 317.271C497.552 312.47 497.681 306.531 497.724 300.906C498.153 245.018 498.582 189.129 499.011 133.241C499.044 128.843 504.992 127.569 509.389 127.684C552.666 128.812 595.943 129.94 639.221 131.068ZM445.267 97.5047C445.918 98.0056 446.806 98.0278 447.627 98.0285C464.501 98.0439 481.374 98.0592 498.247 98.0746C508.026 98.0834 517.804 98.0923 527.583 98.1012C546.309 98.1182 565.036 98.1353 583.763 98.1523C617.303 98.1828 650.844 98.2132 684.384 98.2437C686.209 98.2454 688.372 98.0653 689.298 96.4928C689.771 95.69 689.786 94.708 689.788 93.7763C689.799 87.5033 689.811 81.2304 689.822 74.9574C689.823 74.3048 689.799 73.5829 689.351 73.1085C688.873 72.6032 688.096 72.5651 687.401 72.561C607.853 72.0909 528.305 71.6208 448.757 71.1507C447.771 71.1449 446.669 71.1854 445.981 71.8919C445.361 72.5289 445.285 73.5022 445.244 74.3902C444.941 80.9804 444.638 87.5707 444.335 94.1609C444.279 95.3655 444.311 96.7695 445.267 97.5047ZM589.165 434.11C588.669 433.621 587.748 434.14 587.62 434.825C587.492 435.509 587.864 436.177 588.229 436.77C589.51 438.848 590.951 440.947 593.07 442.161C595.124 443.338 597.574 443.546 599.935 443.727C608.061 444.352 616.186 444.977 624.312 445.601C629.536 446.003 634.77 446.405 640.01 446.315C656.284 446.034 672.217 441.016 688.493 440.937C689.829 440.93 690.197 439.107 690.135 437.772C689.814 430.825 689.494 423.879 689.173 416.932C689.086 415.05 688.341 412.542 686.464 412.695C655.446 415.216 624.275 415.87 593.179 414.652C593.359 420.949 591.531 427.288 588.025 432.521C591.382 432.669 594.756 432.409 598.051 431.75C595.559 430.931 592.932 430.525 590.31 430.555C594.736 428.203 600.773 429.517 603.821 433.496C604.102 433.862 604.371 434.289 604.331 434.749C604.253 435.645 603.156 436.007 602.269 436.153C597.731 436.901 592.438 437.341 589.165 434.11ZM476.263 438.566C475.525 439.101 474.484 439.638 473.778 439.059C473.437 438.779 473.311 438.32 473.202 437.892C472.643 435.68 472.08 433.415 472.29 431.142C472.5 428.87 473.636 426.548 475.682 425.536C477.759 424.508 480.207 422.713 479.571 420.484C478.965 418.364 476.154 418.012 473.95 418.075C463.646 418.37 453.342 418.665 443.038 418.961C442.618 418.973 442.151 419.005 441.86 419.309C441.512 419.674 441.575 420.254 441.662 420.751C443.303 430.13 444.943 439.509 446.584 448.887C446.712 449.619 446.902 450.444 447.547 450.813C447.972 451.056 448.493 451.034 448.982 451.004C455.667 450.592 462.339 449.952 468.981 449.085C474.442 448.372 480.883 447.84 484.558 451.942C484.533 448.322 487.255 445.374 489.143 442.285C491.03 439.196 491.858 434.544 488.908 432.446C485.853 430.274 483.197 427.543 481.11 424.429C479.831 426.033 481.377 428.281 481.691 430.309C482.223 433.744 479.077 436.525 476.263 438.566ZM433.476 295.43C433.582 296.441 434.222 297.303 434.839 298.111C437.752 301.924 440.666 305.737 443.579 309.55C440.264 306.878 436.949 304.206 433.633 301.535C437.093 309.024 443.584 315.06 451.306 317.965C452.591 318.448 453.925 318.857 455.07 319.615C457.072 320.94 458.26 323.159 459.425 325.259C463.406 332.435 468.043 339.247 473.258 345.583C475.584 348.41 478.686 351.404 482.308 350.868C490.013 349.729 497.179 345.314 501.662 338.944C499.596 336.771 497.529 334.599 495.463 332.426C494.746 331.673 493.978 330.888 492.977 330.607C491.975 330.326 490.689 330.779 490.448 331.791C489.729 334.812 485.846 336.121 482.878 335.207C479.91 334.293 477.694 331.871 475.631 329.55C465.735 318.417 455.421 306.435 453.037 291.732C451.304 290.876 450.162 293.659 450.212 295.592C450.268 297.744 450.325 299.896 450.381 302.048C444.93 299.82 443.056 291.126 437.168 291.151C439.89 295.834 442.922 300.336 446.238 304.619C441.352 302.252 437.327 298.151 435.053 293.222C434.038 293.256 433.369 294.42 433.476 295.43ZM655.301 392.505C654.582 396.201 652.579 399.831 649.26 401.607C646.888 402.877 644.111 403.087 641.427 403.272C623.656 404.494 605.885 405.716 588.113 406.938C590.096 409.6 592.601 412.532 595.919 412.46C620.814 411.918 645.708 411.375 670.602 410.833C671.479 410.814 672.491 410.725 672.99 410.004C673.37 409.453 673.308 408.721 673.23 408.056C672.135 398.727 671.041 389.398 669.947 380.069C669.876 379.469 669.778 378.812 669.327 378.409C668.796 377.935 667.992 377.995 667.286 378.084C664.191 378.472 661.097 378.859 658.002 379.247C656.745 379.405 655.116 379.996 655.246 381.256C655.635 385.001 656.021 388.81 655.301 392.505ZM503.121 452.268C511.734 451.615 520.311 450.482 528.798 448.874C530.3 448.589 532.142 447.925 532.245 446.399C530.483 446.538 528.685 445.509 527.912 443.919C527.139 442.328 527.441 440.279 528.639 438.979C527.281 439.019 525.858 439.046 524.645 438.433C523.432 437.821 522.54 436.344 523.054 435.086C523.892 433.036 523.978 430.688 523.291 428.583C522.878 427.318 521.899 425.973 520.574 426.083C518.3 426.272 516.027 424.542 515.604 422.3C515.182 420.059 516.669 417.619 518.855 416.968C518.733 416.395 517.963 416.305 517.38 416.344C506.06 417.108 494.741 417.872 483.422 418.636C483.029 418.662 482.562 418.737 482.398 419.095C482.296 419.317 482.351 419.575 482.413 419.811C483.482 423.889 486.178 427.517 489.775 429.718C487.966 427.864 489.594 424.362 492.11 423.746C494.627 423.13 497.226 424.592 498.991 426.489C500.755 428.386 501.979 430.728 503.706 432.659C504.21 433.223 504.777 433.788 504.951 434.524C505.125 435.259 504.681 436.198 503.926 436.213C503.592 436.22 503.283 436.051 502.992 435.886C499.387 433.842 495.781 431.798 492.176 429.755C492.942 428.312 495.19 428.795 496.432 429.856C497.674 430.917 498.764 432.424 500.39 432.582C499.692 431.387 498.994 430.193 498.296 428.998C497.253 427.213 495.6 425.152 493.601 425.681C491.983 426.108 491.273 428.165 491.714 429.78C492.155 431.394 493.395 432.648 494.587 433.822C496.453 435.66 499.049 437.645 501.42 436.534C502.128 436.202 502.811 437.312 502.417 437.986C502.023 438.661 501.13 438.842 500.349 438.827C498.113 438.786 495.924 437.649 494.603 435.846C494.143 438.42 493.682 440.995 493.222 443.569C496.244 444.598 498.601 447.373 499.126 450.522C499.39 452.104 501.522 452.389 503.121 452.268ZM540.859 226.237C539.112 226.318 537.486 227.167 535.751 227.384C533.605 227.651 531.354 226.879 529.825 225.351C527.903 223.43 522.089 218.471 520.028 220.343C517.967 222.216 517.541 229.551 519.914 233.513C520.364 234.265 519.919 235.273 519.239 235.826C518.558 236.378 517.692 236.64 516.935 237.082C514.807 238.326 513.741 241.134 514.509 243.476C515.276 245.818 517.797 247.451 520.249 247.193C518.47 245.02 518.692 241.481 520.73 239.547C522.767 237.613 526.312 237.575 528.391 239.464C529.73 240.682 531.857 240.422 533.514 239.693C535.17 238.963 536.68 237.838 538.455 237.484C540.779 237.019 543.335 238.081 544.646 240.056C545.957 242.031 545.942 244.798 544.611 246.76C543.362 248.601 544.419 251.53 546.557 252.148C548.694 252.766 551.152 250.854 551.078 248.63C550.956 244.951 553.547 241.544 553.24 237.875C552.981 234.788 550.739 232.267 548.49 230.137C546.357 228.115 543.795 226.1 540.859 226.237ZM523.259 240.925C521.074 241.428 520.323 244.809 522.09 246.19C523.614 244.85 526.063 244.71 527.73 245.866C526.879 247.312 524.552 246.518 523.087 247.336C521.846 248.029 521.56 249.66 521.442 251.076C521.123 254.91 521.048 258.763 521.217 262.606C521.329 265.167 521.564 267.778 522.591 270.126C523.619 272.475 525.573 274.548 528.074 275.111C530.265 275.605 532.592 274.881 534.458 273.631C536.325 272.382 537.806 270.647 539.231 268.911C541.038 266.707 542.819 264.425 543.9 261.788C544.98 259.15 545.294 256.079 544.143 253.471C543.193 251.321 542.769 248.941 542.917 246.594C543.034 244.729 543.442 242.629 542.274 241.17C540.852 239.393 538.04 239.763 535.964 240.694C533.887 241.625 531.786 242.982 529.535 242.647C527.357 242.323 525.405 240.43 523.259 240.925ZM442.7 365.939C442.699 366.859 442.944 367.847 443.327 368.564C444.335 370.452 453.481 368.605 454.894 368.464C463 367.654 471.106 366.844 479.212 366.034C480.455 365.909 481.955 365.591 482.344 364.403C482.537 363.815 482.38 363.175 482.224 362.576C481.857 361.174 481.491 359.772 481.124 358.371C480.903 357.525 480.659 356.638 480.044 356.018C479.016 354.982 477.354 355.039 475.901 355.168C466.057 356.038 456.212 356.908 446.368 357.777C445.064 357.893 443.534 358.156 442.962 359.333C442.711 359.849 442.705 360.445 442.705 361.019C442.703 362.659 442.702 364.299 442.7 365.939ZM652.514 360.443C652.882 360.955 653.611 361.006 654.241 361.009C665.421 361.063 676.6 361.117 687.78 361.171C688.517 361.174 689.304 361.163 689.916 360.753C690.931 360.071 691.024 358.639 691.013 357.417C690.999 355.945 690.979 354.436 690.443 353.065C689.906 351.695 688.734 350.473 687.271 350.317C676.752 349.196 666.217 352.974 655.665 352.223C654.119 352.113 652.762 353.429 652.29 354.906C651.818 356.382 652.021 357.979 652.23 359.515C652.274 359.839 652.323 360.178 652.514 360.443ZM652.057 366.335C651.759 369.483 651.979 372.68 652.704 375.758C661.979 375.441 671.248 374.918 680.5 374.19C682.03 374.069 684.038 373.427 683.927 371.896C683.81 370.287 683.694 368.679 683.577 367.07C683.539 366.543 683.488 365.982 683.162 365.567C682.715 364.997 681.91 364.886 681.188 364.823C672.182 364.034 663.121 363.876 654.093 364.349C653.586 364.376 653.04 364.42 652.654 364.748C652.212 365.124 652.111 365.757 652.057 366.335ZM481.871 371.136C481.711 369.913 480.033 369.723 478.808 369.861C470.028 370.848 461.248 371.834 452.468 372.821C452.095 372.863 451.702 372.912 451.399 373.134C450.8 373.574 450.809 374.457 450.89 375.195C451.141 377.474 451.633 379.957 453.419 381.395C455.829 383.336 459.333 382.499 462.361 381.857C467.996 380.661 473.85 380.5 479.543 381.386C480.787 381.579 481.958 380.551 482.37 379.361C482.782 378.172 482.623 376.87 482.46 375.621C482.264 374.126 482.068 372.631 481.871 371.136ZM539.998 287.441C540.938 286.2 541.798 284.899 542.572 283.547C543.162 282.517 543.717 281.318 543.374 280.181C543.15 279.441 542.581 278.868 542.112 278.253C540.65 276.338 540.085 273.768 540.609 271.417C540.654 271.216 540.706 271.003 540.636 270.809C540.364 270.05 539.257 270.774 538.842 271.466C537.056 274.445 533.976 276.617 530.569 277.298C529.828 277.447 530.024 278.6 529.633 279.167C527.999 281.54 524.631 284.683 527.73 288.358C530.057 291.118 530.551 291.726 531.203 291.926C534.56 292.956 537.877 290.241 539.998 287.441ZM564.388 415.064C565.304 414.9 566.219 414.735 567.134 414.57C568.916 414.249 570.762 413.902 572.24 412.855C574.191 411.474 575.408 408.946 577.731 408.383C578.294 408.246 579.072 407.667 578.596 407.337C578.48 407.257 578.328 407.256 578.187 407.258C571.951 407.336 565.718 407.612 559.5 408.087C560.274 410.123 561.175 412.11 562.195 414.034C562.398 414.416 562.627 414.817 563.012 415.013C563.429 415.225 563.928 415.147 564.388 415.064ZM582.672 408.478C579.787 408.898 577.325 410.794 575.346 412.933C574.866 413.451 575.368 414.469 576.071 414.405C576.835 413.199 578.479 412.993 579.904 412.909C583.175 412.716 586.445 412.523 589.716 412.33C588.86 409.543 585.556 408.058 582.672 408.478ZM545.64 261.665C545.038 264.058 543.704 266.262 541.862 267.904C541.98 268.516 542.874 268.457 543.457 268.237C545.551 267.45 547.711 266.587 549.237 264.951C550.762 263.314 551.451 260.673 550.218 258.807C549.797 260.671 546.106 259.812 545.64 261.665ZM491.057 449.012C490.345 450.465 490.317 452.553 491.715 453.366C492.913 454.062 494.631 453.252 495.025 451.924C495.418 450.596 494.59 449.085 493.327 448.518C492.545 448.167 491.435 448.242 491.057 449.012ZM484.893 414.404C484.682 414.74 484.626 415.303 485.003 415.427C487.581 415.153 490.182 415.091 492.77 415.243C493.061 414.616 492.673 413.842 492.091 413.469C491.51 413.095 490.792 413.022 490.103 412.958C488.208 412.781 485.906 412.793 484.893 414.404ZM599.934 434.737C600.366 434.601 600.664 434.127 600.6 433.678C597.588 433.05 594.438 433.093 591.444 433.803C593.98 435.272 597.139 435.619 599.934 434.737ZM475.554 435.036C476.276 432.236 476.783 429.381 477.067 426.504C474.26 428.186 473.496 432.49 475.554 435.036ZM546.916 258.745C548.061 258.652 549.072 257.675 549.204 256.534C549.337 255.392 548.576 254.21 547.482 253.858C546.449 254.888 545.88 256.366 545.957 257.823C545.971 258.105 546.024 258.414 546.242 258.593C546.425 258.743 546.681 258.764 546.916 258.745ZM495.821 455.668C494.891 454.704 493.207 454.606 492.172 455.455C492.608 456.445 493.383 457.281 494.337 457.792C494.775 458.027 495.309 458.194 495.761 457.986C496.584 457.608 496.451 456.319 495.821 455.668ZM496.603 449.655C496.694 448.236 495.931 446.795 494.706 446.073C493.481 445.352 491.851 445.383 490.654 446.151C492.868 446.849 494.919 448.057 496.603 449.655ZM479.621 430.376C479.441 429.94 479.072 429.484 478.606 429.548C477.641 431.081 477.648 433.171 478.623 434.697C479.804 433.652 480.224 431.833 479.621 430.376ZM480.753 457.229C480.524 457.621 480.731 458.197 481.157 458.354C481.782 458.036 482.192 457.338 482.166 456.638C481.662 456.425 481.006 456.746 480.864 457.274M640.436 177.419C640.144 177.634 639.851 177.849 639.559 178.064C639.742 178.396 639.925 178.728 640.108 179.06C640.642 178.786 640.858 178.031 640.549 177.516L640.436 177.419Z" fill="#00160A"/>
<ellipse cx="522.987" cy="263.27" rx="1.12936" ry="2.25873" fill="#FFB61D"/>
<path fill-rule="evenodd" clip-rule="evenodd" d="M546.605 388.702C548.531 365.97 550.147 343.21 552.382 320.507C552.94 314.844 568.916 321.704 562.286 370.813C561.238 378.578 556.244 390.18 547.331 390.775L546.605 388.702Z" fill="#E7EAEE"/>
<path fill-rule="evenodd" clip-rule="evenodd" d="M154.969 310.843C156.402 341.7 151.439 322.152 164.296 330.415C166.484 331.822 168.877 334.447 168.461 337.015C167.644 342.057 162.783 345.623 161.055 350.429C152.501 374.222 191.265 375.285 198.296 379.027C200.647 380.278 199.59 384.85 198.035 387.011C192.382 394.869 159.487 373.533 155.343 370.344C127.88 349.211 131.152 335.384 152.712 313.676L154.969 310.843Z" fill="#E7EAEE"/>
<ellipse cx="181.919" cy="276.823" rx="1.12936" ry="2.25873" fill="#FFB61D"/>
</svg>