<svg width="610" height="575" viewBox="0 0 610 575" fill="none" xmlns="http://www.w3.org/2000/svg">
<path fill-rule="evenodd" clip-rule="evenodd" d="M1.63553 245.046C19.9962 129.707 361.681 -15.4657 541.396 75.7194C721.111 166.904 488.049 249.43 505.195 439.198C517.089 570.848 315.703 579.679 155.746 509.562C58.8142 467.071 -11.7711 329.265 1.63553 245.046Z" fill="#B8E5FF"/>
<g clip-path="url(#clip0)">
<path fill-rule="evenodd" clip-rule="evenodd" d="M482.33 0.99692C485.848 0.965389 488.161 2.55285 488.991 5.87225C489.404 7.5261 489.187 9.34509 489.199 11.0898C489.231 15.5743 489.283 20.0597 489.225 24.5434C489.19 27.3363 488.968 30.1268 488.836 32.9187C488.811 33.4499 488.805 33.9824 488.805 34.5144C488.803 40.3676 488.849 46.2214 488.793 52.0741C488.695 62.3392 488.544 72.6039 488.399 82.8685C488.278 91.3911 488.132 99.9133 487.999 108.436C487.864 117.092 487.732 125.749 487.597 134.405C487.464 142.927 487.348 151.45 487.188 159.972C487.093 165.01 486.893 170.047 486.805 175.085C486.744 178.592 486.831 182.101 486.786 185.608C486.674 194.265 486.544 202.921 486.383 211.577C486.291 216.549 486.087 221.518 486.001 226.489C485.939 230.063 486.039 233.64 485.977 237.213C485.891 242.118 485.682 247.02 485.599 251.925C485.536 255.699 485.638 259.477 485.573 263.252C485.496 267.754 485.277 272.254 485.198 276.757C485.133 280.397 485.223 284.04 485.177 287.682C485.066 296.539 484.924 305.397 484.78 314.254C484.657 321.838 484.528 329.423 484.376 337.006C484.265 342.514 484.073 348.019 483.991 353.527C483.928 357.771 484.031 362.017 483.964 366.261C483.895 370.63 483.66 374.996 483.591 379.364C483.524 383.541 483.628 387.721 483.561 391.897C483.497 395.864 483.252 399.828 483.189 403.794C483.122 408.038 483.216 412.284 483.165 416.528C483.06 425.319 482.912 434.109 482.77 442.9C482.645 450.618 482.648 458.342 482.329 466.053C482.021 473.468 483.73 480.345 487.417 486.675C491.173 493.124 495.198 499.418 499.19 505.727C503.136 511.963 506.599 518.455 508.434 525.613C509.744 530.723 509.936 536.027 508.465 541.201C507.963 542.969 504.9 555.172 507.506 558.342C510.851 562.412 515.081 564.238 520.29 564.357C525.368 564.473 530.189 563.237 535.055 562.111C540.972 560.741 546.913 559.752 552.87 561.914C555.834 562.989 558.507 564.508 560.26 567.252C560.527 567.67 561.175 568.372 559.76 568.38C556.33 568.398 552.901 568.61 549.472 568.744C542.613 569.012 535.755 569.288 528.896 569.546C524.931 569.695 520.965 569.823 517 569.949C512.566 570.09 508.131 570.227 503.696 570.351C498.525 570.494 493.353 570.633 488.181 570.752C481.737 570.899 475.292 571.035 468.847 571.154C460.928 571.301 453.009 571.442 445.089 571.555C434.556 571.706 424.023 571.812 413.491 571.967C406.308 572.072 399.126 572.233 391.944 572.36C390.715 572.382 389.486 572.354 388.257 572.365C373.435 572.497 358.613 572.632 343.791 572.764C342.495 572.775 341.199 572.756 339.902 572.767C324.745 572.899 309.589 573.034 294.432 573.166C293.069 573.178 291.705 573.157 290.342 573.169C275.319 573.301 260.296 573.436 245.273 573.568C243.977 573.579 242.681 573.56 241.385 573.571C226.228 573.703 211.071 573.838 195.914 573.97C194.685 573.977 75.4555 573.962 74.2263 573.977C72.2817 573.993 63.9801 559.049 75.3059 525.613C77.821 518.187 86.6606 504.605 101.825 484.864C99.76 168.244 99.76 9.89809 101.825 9.82522C105.188 9.70654 108.549 9.5522 111.912 9.42788C119.306 9.1545 196.701 8.89862 204.095 8.6177C206.922 8.51029 209.747 8.32203 212.574 8.22709C217.343 8.06697 222.113 7.96525 226.882 7.8134C230.379 7.70205 233.875 7.5399 237.371 7.4183C241.537 7.27342 245.705 7.15911 249.87 7.00997C253.099 6.89437 256.326 6.717 259.555 6.61808C264.726 6.45967 269.899 6.35469 275.07 6.20586C279.103 6.08979 283.135 5.93534 287.167 5.80896C291.669 5.6679 296.17 5.53929 300.672 5.40525C305.173 5.27122 309.675 5.13408 314.176 5.00401C318.946 4.86619 323.715 4.73704 328.485 4.6005C333.076 4.46905 337.668 4.32643 342.259 4.2007C347.431 4.0591 352.603 3.93157 357.774 3.79667C362.879 3.66352 367.983 3.52606 373.088 3.39552C378.461 3.25813 383.834 3.128 389.206 2.9923C394.445 2.85997 399.685 2.77154 404.922 2.57532C408.919 2.42554 412.91 2.12206 416.905 1.92784C417.497 1.89908 418.1 2.18354 418.697 2.17527C426.951 2.06076 435.206 1.93309 443.46 1.78221C449.637 1.66929 455.813 1.51323 461.99 1.38565C468.77 1.24561 475.55 1.07011 482.33 0.99692ZM132.021 358.636C127.673 374.147 135.014 418.886 129.638 438.465C129.638 440.238 158.25 439.675 215.475 436.775C221.441 422.896 223.545 410.913 221.787 400.827C221.13 397.055 209.906 399.552 209.357 396.578C207.704 387.621 216.809 375.717 212.965 367.723C208.317 367.723 202.32 358.182 189.582 356.752C176.845 355.322 142.709 358.636 132.021 358.636ZM372.866 352.154C368.565 356.864 353.707 365.723 349.06 365.723C345.216 373.717 354.321 385.621 352.668 394.578C352.119 397.552 340.895 395.055 340.238 398.827C338.48 408.913 340.501 421.459 346.302 436.465C403.692 438.238 432.387 438.238 432.387 436.465C428.029 417.981 433.603 366.777 429.255 351.266L428.492 351.266C417.079 351.243 385.314 350.757 372.866 352.154Z" fill="white"/>
</g>
<path fill-rule="evenodd" clip-rule="evenodd" d="M136.534 60.829C140.643 80.5089 140.66 100.782 140.661 120.887C140.665 224.811 140.669 328.736 140.673 432.66C140.673 434.331 140.634 436.129 139.647 437.477C138.659 438.825 136.34 439.285 135.378 437.918C134.913 437.257 134.894 436.392 134.892 435.583C134.672 327.089 134.451 218.595 134.231 110.101C134.198 93.6432 134.169 77.1156 136.534 60.829H136.534Z" fill="#00160A"/>
<path fill-rule="evenodd" clip-rule="evenodd" d="M138.683 51.8094C149.708 54.3533 158.933 65.2305 170.051 63.1309C179.264 61.391 184.76 51.3451 193.636 48.3256C210.45 42.6056 229.837 64.2022 244.697 54.4756C247.393 52.7111 249.47 50.0699 252.312 48.5528C264.463 42.0675 280.182 59.5137 291.917 52.3039C294.638 50.632 296.526 47.8577 299.19 46.095C310.632 38.5223 324.745 53.4876 338.431 52.5138C350.934 51.6243 361.43 37.4198 373.355 41.2782C378.298 42.8774 381.892 47.3598 386.825 48.9873C397.564 52.5298 409.185 41.3357 419.852 45.0885C423.384 46.3313 426.281 49.1117 429.923 49.9859C434.444 51.0714 439.078 49.0126 443.185 46.831C447.292 44.6494 451.606 42.2164 456.247 42.5069C460.888 42.7974 465.555 47.2647 464.104 51.6827C460.741 61.9224 460.341 72.8637 459.969 83.6353C456.007 198.58 452.045 313.525 448.083 428.47C445.377 428.314 444.656 424.69 444.718 421.98C447.535 299.15 450.352 176.319 453.169 53.4892C447.794 50.4572 442.054 57.1897 435.955 58.1306C429.574 59.1149 424.126 53.6196 417.877 51.9987C406.043 48.9292 392.696 59.9625 382.05 53.9527C378.441 51.9152 375.893 48.1633 372.009 46.7156C361.161 42.6715 353.065 58.4535 341.737 60.8447C329.452 63.4378 318.534 49.4815 306.087 51.1307C294.565 52.6575 285.924 67.1573 274.727 64.0406C267.207 61.9476 261.728 52.1515 254.24 54.3525C249.91 55.6249 247.757 60.4462 244.102 63.0927C238.364 67.247 230.276 65.2538 223.958 62.0507C217.64 58.8476 211.482 54.4939 204.403 54.2678C193.969 53.9345 185.585 62.5139 175.751 66.0159C162.18 70.8488 145.549 64.4748 138.683 51.8094V51.8094Z" fill="#00160A"/>
<path fill-rule="evenodd" clip-rule="evenodd" d="M287.435 70.4384C287.537 72.9709 285.581 75.06 283.762 76.8253C276.646 83.7321 269.518 90.6582 263.162 98.2698C255.444 107.511 248.807 117.816 239.548 125.513C238.571 124.364 239.498 122.635 240.425 121.445C253.888 104.16 268.387 87.6811 283.817 72.127C284.803 71.1333 286.087 70.0581 287.435 70.4384V70.4384Z" fill="#E7EAEE"/>
<path fill-rule="evenodd" clip-rule="evenodd" d="M386.416 295.523C385.352 296.275 384.019 296.981 382.802 296.515C383.26 295.126 384.173 293.94 385.092 292.802C396.332 278.884 410.663 267.847 424.851 256.948C426.128 255.967 427.807 254.941 429.232 255.692C429.103 256.892 428.179 257.834 427.29 258.652C418.952 266.316 408.981 272.129 401.146 280.307C396.251 285.416 392.195 291.44 386.416 295.523Z" fill="#E7EAEE"/>
<path fill-rule="evenodd" clip-rule="evenodd" d="M154.999 184.003C155.672 182.601 157.553 182.405 159.108 182.402C175.584 182.371 192.06 182.34 208.536 182.308C208.648 147.108 208.138 111.906 207.005 76.7234C206.965 75.493 206.949 74.173 207.628 73.1464C208.307 72.1199 209.969 71.672 210.766 72.6101C211.352 109.34 211.937 146.071 212.523 182.801C212.539 183.832 212.534 184.939 211.949 185.788C211.014 187.145 209.084 187.245 207.436 187.209C192.191 186.876 176.946 186.542 161.701 186.209C159.264 186.156 156.483 185.937 154.999 184.003V184.003Z" fill="#00160A"/>
<path fill-rule="evenodd" clip-rule="evenodd" d="M105.669 20.1588C125.34 158.905 103.398 300.557 117.169 440.012C235.279 439.324 353.39 438.636 471.5 437.948C474.308 437.932 477.478 437.759 479.328 435.646C480.864 433.891 480.98 431.345 481.018 429.014C483.324 287.984 485.63 146.955 487.936 5.92492C397.774 8.35385 307.611 10.7828 217.448 13.2117C183.661 14.1219 149.749 15.0274 116.15 11.3493C238.194 5.44923 360.34 1.66785 482.515 0.00749554C486.026 -0.040216 489.942 0.0679765 492.441 2.53379C494.996 5.05375 495.101 9.07244 495.041 12.6601C492.686 151.966 490.332 291.272 487.977 430.578C487.609 452.359 487.454 475.126 497.238 494.59C504.915 509.864 518.847 525.091 513.92 541.461C512.717 545.455 510.382 549.289 510.691 553.45C511.493 564.248 526.842 565.642 537.384 563.167C547.926 560.693 562.674 559.819 565.843 570.173C391.536 574.077 217.174 575.513 42.8262 574.48C55.2474 570.433 68.216 568.071 81.2662 567.478C74.0163 551.256 75.9115 531.293 86.0845 516.725C91.8117 508.524 99.9807 501.858 103.678 492.563C106.376 485.779 106.402 478.272 106.39 470.971C106.15 320.7 105.91 170.43 105.669 20.1588ZM350.437 528.499C321.15 529.511 292.042 535.065 262.753 534.106C249.575 533.674 236.477 531.926 223.323 531.012C191.058 528.77 158.679 531.559 126.457 534.345C113.638 535.454 100.819 536.563 88 537.672C86.7947 537.776 85.4838 537.927 84.6251 538.779C83.5205 539.876 83.6076 541.655 83.7717 543.203C84.4835 549.919 85.1952 556.636 85.907 563.352C86.0707 564.897 86.3156 566.602 87.5039 567.602C88.6046 568.529 90.1788 568.562 91.6179 568.549C228.212 567.314 364.806 566.079 501.401 564.844C502.914 564.83 504.581 564.759 505.689 563.727C506.792 562.701 506.986 561.053 507.113 559.552C507.852 550.785 508.59 542.018 509.329 533.25C456.659 539.726 403.472 526.666 350.437 528.499ZM253.487 525.965C290.941 527.69 328.302 520.725 365.793 521.009C411.897 521.359 458.174 532.645 503.726 525.525C504.797 525.358 505.984 525.11 506.605 524.222C507.502 522.94 506.704 521.197 505.903 519.853C500.917 511.493 495.932 503.133 490.946 494.773C489.717 492.712 488.406 490.568 486.345 489.34C484.116 488.012 481.378 487.973 478.784 487.971C358.666 487.899 238.548 489.483 118.474 492.725C108.024 505.14 96.9285 517.011 85.2476 528.276C123.572 532.851 162.064 521.586 200.656 522.154C218.314 522.414 235.846 525.152 253.487 525.965ZM113.108 466.761C114.029 473.764 117.948 480.809 124.492 483.47C128.241 484.995 132.416 484.952 136.463 484.886C250.85 483.025 365.238 481.163 479.625 479.302C480.064 471.705 480.502 464.107 480.941 456.51C481.011 455.292 481.056 453.977 480.381 452.962C479.481 451.61 477.667 451.287 476.056 451.091C356.565 436.515 235.148 456.902 115.284 445.797C113.74 452.69 112.186 459.757 113.108 466.761Z" fill="#00160A"/>
<path fill-rule="evenodd" clip-rule="evenodd" d="M285.43 98.2699C286.128 97.6325 286.856 96.9833 287.748 96.673C288.641 96.3626 289.75 96.4746 290.366 97.1908C290 98.7705 288.617 99.871 287.354 100.888C275.318 110.573 266.683 123.904 254.941 133.945C254.08 134.681 252.554 135.299 252.023 134.298C251.657 133.609 252.212 132.807 252.733 132.227C263.231 120.526 273.823 108.871 285.43 98.2699V98.2699Z" fill="#E7EAEE"/>
<path fill-rule="evenodd" clip-rule="evenodd" d="M151.34 305.711C151.323 303.661 153.149 302.138 154.788 300.906C164.869 293.33 174.216 284.778 182.657 275.41C183.407 274.578 184.921 275.568 184.926 276.688C184.931 277.808 184.073 278.72 183.272 279.503C174.766 287.817 166.23 296.157 156.717 303.297C155.117 304.499 153.341 305.716 151.34 305.711Z" fill="#E7EAEE"/>
<path fill-rule="evenodd" clip-rule="evenodd" d="M216.431 72.2538C217.518 71.6981 218.777 71.4834 219.987 71.6473C221.081 108.187 221.977 144.733 222.675 181.283C263.144 180.034 303.666 180.535 344.091 182.783C347.681 145.195 347.596 107.361 347.255 69.6035C347.246 68.6197 347.252 67.5795 347.755 66.7341C348.258 65.8886 349.45 65.3722 350.26 65.9314C350.96 66.4149 351.046 67.3977 351.063 68.2483C351.862 106.825 350.826 145.439 347.96 183.917C347.902 184.693 347.826 185.519 347.35 186.135C346.554 187.166 345.033 187.183 343.733 187.107C302.144 184.684 260.435 184.345 218.812 186.092C218.733 148.135 217.939 110.18 216.431 72.2538Z" fill="#00160A"/>
<path fill-rule="evenodd" clip-rule="evenodd" d="M353.552 437.482C347.298 424.246 344.892 409.218 346.703 394.691C346.764 394.198 346.843 393.675 347.169 393.3C347.322 407.161 349.83 420.993 354.555 434.025C354.799 434.7 355.054 435.407 354.954 436.118C354.855 436.829 354.268 437.528 353.552 437.482H353.552Z" fill="#00160A"/>
<path fill-rule="evenodd" clip-rule="evenodd" d="M381.009 264.627C388.025 257.857 395.042 251.087 402.058 244.317C402.789 243.612 404.103 244.557 404.088 245.572C404.073 246.587 403.295 247.407 402.567 248.115C396.69 253.834 390.813 259.552 384.935 265.271C384.178 266.008 383.302 266.795 382.245 266.779C381.188 266.763 380.248 265.361 381.009 264.627H381.009Z" fill="#E7EAEE"/>
<path fill-rule="evenodd" clip-rule="evenodd" d="M231.932 394.683C249.798 394.748 267.649 393.718 285.485 392.689C306.148 391.496 326.811 390.304 347.474 389.111C352.084 388.845 356.879 388.527 360.899 386.254C356.228 380.794 353.104 374.024 351.982 366.926C351.874 366.244 351.792 365.508 352.11 364.895C352.428 364.282 353.309 363.922 353.834 364.372C354.768 372.072 357.806 379.506 362.532 385.657C363.489 386.903 361.835 388.496 360.375 389.077C355.331 391.081 349.802 391.404 344.383 391.704C328.449 392.586 312.515 393.467 296.581 394.349C276.363 395.468 256.145 396.586 235.911 397.358C231.955 397.509 227.301 397.318 225.044 394.065C223.167 391.36 223.823 387.706 224.598 384.505C225.84 379.379 227.193 374.28 228.656 369.213C229.074 367.764 229.914 366.006 231.419 366.088C228.358 373.15 226.738 380.833 226.687 388.529C226.673 390.622 226.98 393.079 228.795 394.122C229.727 394.657 230.857 394.679 231.932 394.683Z" fill="#00160A"/>
<path fill-rule="evenodd" clip-rule="evenodd" d="M231.013 106.345C229.885 105.839 230.526 104.133 231.309 103.176C240.268 92.233 249.227 81.2897 258.186 70.3463C258.561 69.888 258.96 69.412 259.509 69.1893C260.058 68.9666 260.799 69.0995 261.062 69.6307C261.363 70.2415 260.905 70.9387 260.471 71.4641C251.501 82.3342 242.531 93.2044 233.561 104.075C232.83 104.96 232.061 105.876 231.013 106.345H231.013Z" fill="#E7EAEE"/>
<path fill-rule="evenodd" clip-rule="evenodd" d="M106.557 19.6091C106.397 18.3736 106.353 17.1228 106.428 15.8791C106.44 15.6789 106.482 15.4386 106.669 15.3644C106.976 15.242 107.183 15.6857 107.218 16.0149C107.351 17.2677 107.427 18.6979 106.557 19.6091H106.557Z" fill="#00160A"/>
<path fill-rule="evenodd" clip-rule="evenodd" d="M424.671 186.587C401.752 186.809 378.833 187.032 355.915 187.254C355.275 187.26 354.574 187.245 354.089 186.827C353.529 186.344 353.469 185.512 353.451 184.772C352.539 146.467 353.912 108.147 355.285 69.8549C355.328 68.6664 355.401 67.3896 356.136 66.4542C356.87 65.5188 358.527 65.2431 359.185 66.2338C357.496 104.264 356.648 142.331 356.643 180.399C356.643 181.549 357.029 183.101 358.179 183.057C384.227 182.062 410.313 182.055 436.361 183.036C436.893 183.056 437.517 183.13 437.779 183.593C438.229 184.386 437.163 185.171 436.287 185.423C432.535 186.503 428.575 186.549 424.671 186.587V186.587Z" fill="#00160A"/>
<path fill-rule="evenodd" clip-rule="evenodd" d="M60.6708 399.507C60.2611 399.1 59.8514 398.693 59.4418 398.285C59.2224 398.067 58.9912 397.725 59.183 397.482C59.4055 397.201 59.849 397.452 60.1021 397.707C60.4796 398.086 60.8571 398.465 61.2346 398.845C61.4872 399.098 61.7338 399.547 61.4472 399.761C61.2084 399.94 60.8824 399.718 60.6708 399.507L60.6708 399.507Z" fill="#00160A"/>
<path fill-rule="evenodd" clip-rule="evenodd" d="M174.375 230.738C174.618 231.2 174.442 231.768 174.203 232.233C173.653 233.304 172.804 234.188 171.956 235.044C170.294 236.722 168.591 238.36 166.848 239.955C166.258 240.495 165.613 241.055 164.821 241.172C164.03 241.289 163.091 240.737 163.117 239.937C163.133 239.476 163.447 239.087 163.748 238.738C166.134 235.983 168.735 233.415 171.521 231.065C171.944 230.709 172.391 230.347 172.927 230.214C173.464 230.082 174.117 230.249 174.375 230.738V230.738Z" fill="#E7EAEE"/>
<path fill-rule="evenodd" clip-rule="evenodd" d="M160.439 168.633C160.263 168.626 160.257 168.298 160.433 168.285C160.609 168.298 160.603 168.627 160.427 168.634L160.439 168.633Z" fill="#00160A"/>
<path fill-rule="evenodd" clip-rule="evenodd" d="M158.874 260.026C158.678 259.333 159.242 258.672 159.785 258.198C160.99 257.146 162.316 256.245 163.614 255.311C168.49 251.804 173.014 247.809 177.097 243.405C177.569 242.896 178.054 242.367 178.688 242.082C179.321 241.797 180.15 241.822 180.622 242.332C181.071 242.818 181.059 243.598 180.773 244.194C180.486 244.79 179.978 245.246 179.482 245.684C176.01 248.758 172.537 251.832 169.065 254.905C166.79 256.919 164.489 258.951 161.807 260.378C161.306 260.644 160.77 260.894 160.203 260.894C159.635 260.893 159.029 260.572 158.874 260.026H158.874Z" fill="#E7EAEE"/>
<path fill-rule="evenodd" clip-rule="evenodd" d="M377.767 244.13C377.277 244.656 376.778 245.209 376.117 245.492C375.456 245.775 374.58 245.7 374.154 245.122C373.468 244.19 374.369 242.939 375.217 242.153C380.281 237.464 385.585 233.035 391.1 228.887C392.139 228.105 393.447 227.294 394.652 227.784C394.783 227.837 394.92 227.918 394.964 228.052C395 228.16 394.969 228.277 394.934 228.384C394.401 230.024 392.993 231.202 391.64 232.271C386.862 236.048 381.916 239.671 377.767 244.13Z" fill="#E7EAEE"/>
<path fill-rule="evenodd" clip-rule="evenodd" d="M236.845 400.819C237.717 404.789 239.078 411.418 238.601 415.454C237.743 422.732 235.756 427.958 234.141 435.106C233.883 436.248 232.367 437.02 231.284 437.465C230.615 436.537 230.898 435.258 231.198 434.154C234.162 423.262 236.056 412.08 236.845 400.819Z" fill="#00160A"/>
<path fill-rule="evenodd" clip-rule="evenodd" d="M300.787 436.218C300.213 436.847 299.19 436.263 298.58 435.669C295.064 432.247 291.886 428.478 289.106 424.435C288.971 424.24 288.683 424.471 288.575 424.682C286.546 428.623 284.516 432.564 282.487 436.505C282.4 436.674 282.282 436.865 282.093 436.879C281.71 436.909 281.706 436.311 281.86 435.959C283.851 431.388 285.843 426.817 287.834 422.246C287.925 422.038 288.021 421.823 288.191 421.673C288.843 421.097 289.794 421.877 290.306 422.581C293.28 426.664 296.572 430.515 300.145 434.086C300.728 434.668 301.342 435.609 300.787 436.218Z" fill="#00160A"/>
<path fill-rule="evenodd" clip-rule="evenodd" d="M150.523 332.529C149.748 333.639 149.797 335.107 149.878 336.459L150.735 350.909C150.835 352.585 151.029 354.459 152.319 355.534C153.521 356.537 155.255 356.485 156.818 356.381L187.582 354.335C196.467 353.744 206.159 353.369 213.392 358.562C226.807 368.193 247.627 365.186 257.768 352.152C258.957 350.624 261.167 350.463 263.103 350.431L321.516 349.472L321.673 349.47C324.307 349.426 327.75 349.368 329.02 351.362C339.837 368.346 368.073 365.153 382.1 351.466C384.799 348.833 388.896 348.417 392.657 348.145L429.74 345.465C434.054 345.153 437.308 341.031 438.101 336.779C438.895 332.528 437.802 328.176 436.717 323.989C436.382 322.696 435.955 321.274 434.809 320.588C433.965 320.082 432.92 320.099 431.936 320.131L354.409 322.667C352.907 280.127 353.66 237.508 356.665 195.047C385.127 193.673 413.633 193.201 442.125 193.633C442.978 191.308 439.444 190.035 436.968 190.098L357.514 192.114C356.141 192.148 354.628 192.239 353.644 193.197C352.66 194.154 352.527 195.662 352.456 197.032C350.257 239.029 349.592 281.105 350.462 323.15C348.854 323.416 347.17 323.206 345.676 322.554L346.282 195.755C346.288 194.616 346.224 193.32 345.353 192.587C344.656 192 343.662 191.972 342.751 191.973C301.31 192.018 259.87 192.576 218.443 193.648L220.739 327.495L215.363 328.137C213.299 283.955 212.584 239.711 213.218 195.486C213.253 193.05 210.049 192.168 207.615 192.061C189.257 191.256 170.865 191.238 152.506 192.007C155.289 194.983 159.829 195.275 163.902 195.369L209.527 196.421C208.792 240.084 209.441 283.77 211.472 327.392L155.479 330.678C153.653 330.785 151.57 331.029 150.523 332.529ZM222.357 195.792C262.192 195.584 302.025 195.207 341.857 194.662C342.679 194.651 342.938 195.76 342.93 196.582L341.74 323.201L224.501 327.717C223.416 283.749 222.702 239.772 222.357 195.792ZM238.798 338.612C236.512 338.703 234.656 340.453 233.232 342.243C233.005 342.529 232.78 342.82 232.555 343.112C231.369 344.651 230.166 346.213 228.449 347.08C226.846 347.889 224.989 347.985 223.195 348.066L154.502 351.154L153.25 334.84C245.92 329.642 338.666 325.807 431.448 323.336C432.085 323.319 432.784 323.322 433.274 323.729C433.859 324.215 433.919 325.076 433.933 325.836L434.227 341.376C412.52 344.56 390.535 345.262 368.607 345.959C365.533 346.056 362.248 346.1 359.652 344.451C357.882 343.327 356.674 341.566 355.477 339.821C355.196 339.411 354.915 339.002 354.628 338.603C353.118 336.501 351.091 334.446 348.511 334.233C345.932 334.021 343.2 336.767 344.35 339.086C341.983 335.963 335.904 337.844 335.715 341.758C334.972 338.785 331.178 337.036 328.436 338.402C325.693 339.768 324.803 343.85 326.729 346.234L259.906 347.403C259.994 344.987 258.095 342.655 255.711 342.251C253.327 341.847 250.766 343.423 250.052 345.734C250.111 342.079 244.383 340.134 242.205 343.07C243.379 341.107 241.084 338.522 238.798 338.612ZM344.75 359.133C341.36 358.39 337.848 357.332 335.436 354.837C334.209 353.568 333.344 352.002 332.493 350.455L329.244 344.55C328.857 343.846 328.457 343.081 328.559 342.285C328.66 341.489 331.195 339.064 333.455 341.758C335.715 344.451 336.544 345.52 338.285 348.895C338.429 349.174 338.572 349.462 338.718 349.754C339.882 352.087 341.18 354.691 343.677 354.83C344.158 353.008 343.327 351.125 342.516 349.425L340.253 344.678C339.533 343.17 338.841 341.282 339.837 339.94C345.024 341.69 347.917 347.09 350.149 352.089C350.43 352.717 350.728 353.372 351.267 353.799C351.807 354.226 352.668 354.334 353.152 353.844C353.789 353.2 353.383 352.123 352.955 351.323C350.83 347.349 348.955 343.241 347.345 339.032C347.156 338.539 346.987 337.933 347.325 337.527C347.733 337.037 348.52 337.242 349.094 337.523C352.644 339.26 355.502 342.366 356.94 346.047C357.051 346.33 357.154 346.618 357.257 346.905C357.594 347.844 357.931 348.784 358.528 349.576C360.362 352.012 363.879 352.216 366.929 352.202C367.757 352.198 368.614 352.188 369.365 351.839C370.116 351.49 370.729 350.701 370.601 349.883C370.48 349.114 371.555 348.805 372.334 348.811L381.959 348.897C377.134 354.655 369.382 356.856 362.114 358.76C360.057 359.299 357.99 359.839 355.876 360.073C352.16 360.483 348.402 359.934 344.75 359.133ZM208.535 353.493C211.662 352.838 214.833 352.391 218.02 352.156C217.763 353.251 218.5 354.377 219.457 354.968C221.69 356.346 224.719 355.379 226.666 353.62C227.978 352.435 228.961 350.958 229.946 349.479C230.422 348.764 230.899 348.048 231.413 347.364C233.451 344.656 238.915 338.492 239.998 341.376C240.633 343.07 239.059 346.207 237.306 349.7C236.076 352.152 234.757 354.78 234.054 357.207C236.254 355.534 237.176 354.002 238.153 352.089C239.279 349.883 241.615 346.786 243.435 344.55C244.254 343.543 245.475 342.941 246.631 343.458C247.788 343.975 248.132 345.374 247.827 346.047C247.11 347.624 246.657 348.785 246.203 349.946C245.749 351.107 245.295 352.267 244.578 353.844C244.533 353.944 244.462 354.088 244.377 354.26C243.946 355.13 243.151 356.739 243.435 357.215C243.727 357.705 244.523 356.857 245.335 355.992C245.526 355.788 245.719 355.583 245.906 355.394C246.191 355.106 246.676 354.253 247.309 353.138C248.849 350.428 251.271 346.166 253.864 344.678C255.99 343.458 256.928 346.582 256.482 347.525C255.661 349.262 254.787 350.975 253.864 352.66C252.639 354.895 250.284 357.13 248.308 358.739C245.796 360.783 242.518 361.622 239.307 362.041C228.147 363.499 217.457 360.353 208.535 353.493ZM222.357 354.335C220.718 354.493 219.457 352.156 219.457 352.156L226.205 351.665C226.205 351.665 223.997 354.176 222.357 354.335Z" fill="#00160A"/>
<defs>
<clipPath id="clip0">
<rect width="492" height="573" fill="white" transform="translate(68.8262 1)"/>
</clipPath>
</defs>
</svg>